<?xml version="1.0" encoding="UTF-8"?>
<svg version="1.1" xmlns="http://www.w3.org/2000/svg" width="1509" height="1920">
<path d="M0 0 C497.97 0 995.94 0 1509 0 C1509 633.6 1509 1267.2 1509 1920 C1011.03 1920 513.06 1920 0 1920 C0 1286.4 0 652.8 0 0 Z " fill="#211F20" transform="translate(0,0)"/>
<path d="M0 0 C223.08 0 446.16 0 676 0 C676.40378642 268.43721502 676.40378642 268.43721502 676.48164964 371.19971824 C676.48274339 372.64017406 676.4838376 374.08062989 676.48493221 375.52108571 C676.48548098 376.24334398 676.48602974 376.96560225 676.48659513 377.70974713 C676.50601024 403.22660894 676.526079 428.74347017 676.54729256 454.26033055 C676.54931151 456.6957504 676.55131329 459.13117025 676.55331089 461.56659012 C676.58395847 498.85323534 676.62296384 536.1398478 676.68664551 573.42645264 C676.6880145 574.22811204 676.68938348 575.02977144 676.69079396 575.85572355 C676.7129173 588.78060653 676.73575353 601.70548826 676.7586844 614.63036983 C676.82473245 651.86417912 676.88549718 689.09796325 676.91139793 726.33182526 C676.91220096 727.48068783 676.91220096 727.48068783 676.91302021 728.65275974 C676.92467866 745.46751652 676.93362682 762.28227361 676.94000983 779.09703319 C676.942626 785.86303386 676.9456322 792.62903435 676.94877243 799.39503479 C676.9491067 800.13553763 676.94944097 800.87604047 676.94978537 801.63898279 C676.96074429 825.48631668 677.00343598 849.33346385 677.06282208 873.18072242 C677.12251343 897.20901476 677.15098048 921.23712605 677.13623988 945.26549439 C677.12712974 960.17282034 677.1449055 975.07945552 677.20797543 989.98665633 C677.24547062 999.49805149 677.24663983 1009.00900375 677.21831814 1018.52042947 C677.20321863 1023.94017552 677.20386907 1029.35864264 677.24883182 1034.77825159 C677.28947765 1039.71508952 677.28353736 1044.649658 677.24139976 1049.58646343 C677.23429338 1051.35537906 677.24373615 1053.12446445 677.27235245 1054.89316287 C677.4741083 1068.21437061 674.01725154 1076.42480556 666 1087 C665.35306688 1087.88557631 664.70613375 1088.77115262 664.03959659 1089.68356457 C662.58488428 1091.63884751 661.07106813 1093.51240919 659.5 1095.375 C658.95085938 1096.03580566 658.40171875 1096.69661133 657.8359375 1097.37744141 C638.74711202 1120.07871613 613.27529004 1135.86729556 586 1147 C585.22495117 1147.3189624 584.44990234 1147.6379248 583.65136719 1147.96655273 C560.11829217 1157.53633324 535.95527921 1163.55746533 511 1168 C509.7936792 1168.22018799 509.7936792 1168.22018799 508.56298828 1168.44482422 C493.70814419 1171.13151523 478.66498314 1172.5348762 463.66680908 1174.16471863 C419.03053363 1177.76477723 419.03053363 1177.76477723 376 1189 C375.35901367 1189.25120605 374.71802734 1189.50241211 374.05761719 1189.76123047 C332.57848191 1206.27401153 303.99635442 1240.6303146 284.93652344 1280.08618164 C284.30682171 1281.37299912 283.66396225 1282.65345272 283.00878906 1283.92749023 C280.41271863 1288.97952372 278.27451429 1294.13292501 276.25 1299.4375 C275.93417969 1300.25154297 275.61835937 1301.06558594 275.29296875 1301.90429688 C273.72217063 1305.35617484 273.72217063 1305.35617484 273 1309 C273.66193359 1308.89453857 274.32386719 1308.78907715 275.00585938 1308.68041992 C278.16994784 1308.17874967 281.33496514 1307.6831632 284.5 1307.1875 C285.53898437 1307.02185547 286.57796875 1306.85621094 287.6484375 1306.68554688 C308.64883121 1303.41195609 329.6848438 1301.32686723 350.87451172 1299.77050781 C368.07361161 1298.49530472 385.09444646 1296.62236996 402 1293.125 C402.82081055 1292.95556885 403.64162109 1292.7861377 404.48730469 1292.61157227 C406.99402453 1292.08531412 409.49724988 1291.54479257 412 1291 C412.76119141 1290.83838379 413.52238281 1290.67676758 414.30664062 1290.51025391 C443.08762409 1284.29252209 471.56529844 1273.49042127 497.38476562 1259.42382812 C500.23566446 1257.87169575 503.09414205 1256.33406158 505.953125 1254.796875 C507.9483155 1253.71948827 509.94311444 1252.64137606 511.9375 1251.5625 C512.87940186 1251.05436768 513.82130371 1250.54623535 514.79174805 1250.02270508 C515.67386963 1249.54212646 516.55599121 1249.06154785 517.46484375 1248.56640625 C518.244646 1248.14302979 519.02444824 1247.71965332 519.82788086 1247.28344727 C522.01441966 1245.99147981 523.99920856 1244.5614198 526 1243 C526.66 1243.33 527.32 1243.66 528 1244 C520.76289113 1249.48378868 513.47235294 1254.83972039 506 1260 C504.50533203 1261.04800781 504.50533203 1261.04800781 502.98046875 1262.1171875 C476.68419734 1280.49596002 448.67861892 1297.09821127 418 1307 C417.17886719 1307.28101563 416.35773437 1307.56203125 415.51171875 1307.8515625 C413.34807467 1308.59146151 411.17721722 1309.30119002 409 1310 C408.29488281 1310.23332031 407.58976562 1310.46664063 406.86328125 1310.70703125 C380.04745151 1319.22071573 351.77255831 1321.26795171 323.89453125 1323.4921875 C300.36242415 1325.40008323 277.57996428 1330.26303482 254.60746765 1335.5030365 C249.84041562 1336.58883511 245.06818795 1337.64436476 240.2890625 1338.67578125 C229.4066073 1341.02824073 218.66279926 1343.5016562 208.0234375 1346.7890625 C203.59382097 1348.15016684 199.11361871 1349.28942846 194.625 1350.4375 C179.01838531 1354.4793989 163.78515733 1359.69660345 148.51367188 1364.84082031 C143.54277225 1366.51103081 138.57499398 1368.14788429 133.54296875 1369.625 C130.04673134 1370.65769897 126.71701653 1371.84342627 123.375 1373.3125 C118.60818103 1375.35542242 113.80318505 1377.21168346 108.9375 1379 C103.51318072 1381.00780962 98.21896527 1383.15656432 92.98046875 1385.6171875 C90.74286843 1386.6553402 88.5025831 1387.656364 86.23828125 1388.6328125 C67.3917211 1396.78742624 48.79033857 1405.77396862 31.30712891 1416.57470703 C29.62281284 1417.61524007 27.93441167 1418.64916887 26.24365234 1419.67919922 C7.62910923 1431.02105527 -10.08855249 1443.24582902 -27 1457 C-27.52867676 1457.42958008 -28.05735352 1457.85916016 -28.60205078 1458.30175781 C-47.14758608 1473.46864413 -64.70784576 1490.30622428 -79.49609375 1509.19140625 C-79.99238281 1509.78824219 -80.48867188 1510.38507813 -81 1511 C-81.33 1511 -81.66 1511 -82 1511 C-82.04567108 1510.44306458 -82.09134216 1509.88612915 -82.13839722 1509.31231689 C-82.62318035 1503.40497503 -83.11048537 1497.49784472 -83.59912109 1491.59082031 C-83.78007925 1489.39946514 -83.96043842 1487.20806041 -84.14013672 1485.01660156 C-85.0979719 1473.34064427 -86.10022368 1461.67419187 -87.29037476 1450.01945496 C-88.10456005 1442.04014528 -88.82828928 1434.05499726 -89.5 1426.0625 C-89.56314392 1425.31606232 -89.62628784 1424.56962463 -89.69134521 1423.80056763 C-90.85051741 1409.97890041 -91.67585792 1396.14820951 -92.35351562 1382.29516602 C-92.39028412 1381.55356232 -92.42705261 1380.81195862 -92.4649353 1380.04788208 C-92.56273106 1378.05670613 -92.6567677 1376.06534653 -92.75048828 1374.07397461 C-92.91595249 1370.99387428 -93.19345961 1367.93481888 -93.49560547 1364.86523438 C-94.1053302 1358.33512664 -94.31022081 1351.80776039 -94.5 1345.25390625 C-94.55985636 1343.26381325 -94.61972168 1341.27372048 -94.68008423 1339.28364277 C-94.72164477 1337.91256561 -94.76279975 1336.5414761 -94.80355835 1335.17037487 C-94.9444627 1330.51944394 -95.12364568 1325.87114482 -95.3203125 1321.22216797 C-97.76254271 1261.79409509 -97.76254271 1261.79409509 -82.05029297 1240.84887695 C-78.94993234 1236.54093361 -76.4509554 1231.94420244 -73.87158203 1227.3112793 C-71.95361974 1223.91794216 -69.93985662 1220.61802528 -67.875 1217.3125 C-65.48622441 1213.47471905 -63.22866944 1209.62551744 -61.125 1205.625 C-57.60487776 1199.05346744 -53.40851219 1192.96230165 -49.21972656 1186.80615234 C-47.44830103 1184.18305265 -45.72977675 1181.52569029 -44 1178.875 C-40.07161322 1172.98634037 -35.78282475 1167.40689067 -31.42431641 1161.83496094 C-29.87644543 1159.84082342 -28.34866183 1157.83241222 -26.82421875 1155.8203125 C-13.48263158 1138.21674733 0.96912842 1121.73528852 15.90429688 1105.47070312 C21.49202906 1099.38140733 27.05560833 1093.27260102 32.4375 1087 C35.88866744 1083.02835487 39.60654906 1079.35678118 43.375 1075.6875 C45.32975131 1073.68620699 47.1357305 1071.68977857 48.94384766 1069.56494141 C53.88940093 1063.89541351 59.21566087 1058.59996301 64.5234375 1053.2734375 C65.06844532 1052.7256023 65.61345314 1052.17776711 66.17497635 1051.61333084 C69.05504601 1048.71837373 71.93789857 1045.82622385 74.82324219 1042.93652344 C77.78072028 1039.97355215 80.72879233 1037.00140375 83.67477989 1034.02701378 C85.96385063 1031.71921525 88.2597034 1029.41825308 90.55739212 1027.11903763 C91.64659665 1026.02683284 92.73333214 1024.93215935 93.81739426 1023.83485031 C110.11840896 1007.34880111 110.11840896 1007.34880111 120.2109375 1007.1171875 C121.52908447 1007.0670752 122.84723145 1007.01696289 124.20532227 1006.96533203 C124.88668243 1006.95101135 125.5680426 1006.93669067 126.27005005 1006.92193604 C129.84577331 1006.84220479 133.41635584 1006.66340548 136.98828125 1006.484375 C138.03782234 1006.43357285 138.03782234 1006.43357285 139.10856628 1006.38174438 C146.98344034 1005.96062439 154.44789081 1004.50878968 162.0546875 1002.50585938 C163.88055729 1002.0310599 165.72140362 1001.61494919 167.5625 1001.203125 C187.65070984 996.45011106 206.66171091 988.10767715 224 977 C224.59474121 976.62601074 225.18948242 976.25202148 225.80224609 975.86669922 C238.08116771 968.12494096 249.39485719 958.86149441 259.5 948.4375 C262 946 262 946 264 946 C264.66 944.68 265.32 943.36 266 942 C266.66 942 267.32 942 268 942 C268.22429687 941.4740625 268.44859375 940.948125 268.6796875 940.40625 C270.46789226 937.14727327 272.79257605 934.37673498 275.125 931.5 C288.74403272 914.36680597 300.41075318 895.1433098 309 875 C309.57550315 873.69270055 310.15102457 872.38540914 310.7265625 871.078125 C332.30775107 821.18983872 340.07925902 763.91705701 341 710 C341.03287109 708.36538818 341.03287109 708.36538818 341.06640625 706.69775391 C341.76080724 667.92124554 339.77924163 628.68497375 330 591 C329.80937988 590.25266602 329.61875977 589.50533203 329.42236328 588.73535156 C326.88255289 578.87491123 323.85851499 569.43119817 320 560 C319.90501221 560.67353516 319.81002441 561.34707031 319.7121582 562.04101562 C317.78943152 575.43277845 315.74298388 588.29463258 311 601 C310.75411133 601.67401855 310.50822266 602.34803711 310.25488281 603.04248047 C301.91491231 625.65039298 288.24473789 646.15161663 271.51757812 663.41308594 C269.40075021 665.62662864 267.3528873 667.9001114 265.29760742 670.1706543 C261.17980958 674.70549366 257.02899324 679.06562594 252.3203125 682.99609375 C249.65799105 685.29537137 247.11188348 687.69921924 244.55615234 690.11572266 C239.36442695 695.02262158 234.2162458 699.83592653 228.484375 704.11328125 C225.02425303 706.74101539 221.67570518 709.4999059 218.3125 712.25 C211.44481864 717.85226461 204.49913898 723.34643749 197.51953125 728.80810547 C193.65398197 731.84017674 189.82663343 734.91909741 186 738 C185.41492676 738.46631836 184.82985352 738.93263672 184.22705078 739.41308594 C174.79907667 746.92796598 165.67913281 754.62887493 157 763 C156.32791504 763.64485352 155.65583008 764.28970703 154.96337891 764.95410156 C131.86694456 787.22137965 114.87936313 812.25627791 105 843 C104.65324219 844.06992187 104.30648437 845.13984375 103.94921875 846.2421875 C100.77731767 856.65190147 98.87807902 867.29473043 97 878 C96.78214844 879.22332031 96.56429687 880.44664062 96.33984375 881.70703125 C93.81357868 896.88333477 93.8663588 912.10455851 93.9375 927.4375 C93.94252969 929.34439985 93.94708997 931.25130101 93.95117188 933.15820312 C93.96205043 937.77216822 93.97923236 942.38606925 94 947 C95.0916748 946.38664795 96.18334961 945.7732959 97.30810547 945.14135742 C98.22920609 944.62384163 98.22920609 944.62384163 99.16891479 944.09587097 C102.00582781 942.39803047 104.53843827 940.36653431 107.125 938.3125 C112.42261952 934.15952696 117.85654793 930.28191637 123.4140625 926.48046875 C134.82927704 918.63372417 145.95140537 910.35157292 157 902 C158.07372056 901.19594887 159.14795442 900.39258283 160.22265625 899.58984375 C160.76035645 899.18797852 161.29805664 898.78611328 161.85205078 898.37207031 C163.33746762 897.26223931 164.8230256 896.15259721 166.30859375 895.04296875 C168.14505224 893.64896615 169.94914792 892.21153996 171.72265625 890.73828125 C174 889 174 889 176 889 C176 888.34 176 887.68 176 887 C177.6171875 885.58984375 177.6171875 885.58984375 179.875 883.9375 C185.19744469 879.90835963 190.08523808 875.51168072 195 871 C195.99794591 870.10593074 196.99667274 869.21273254 197.99609375 868.3203125 C210.34055721 857.21870859 221.84146292 845.14216336 232 832 C232.45439453 831.41283203 232.90878906 830.82566406 233.37695312 830.22070312 C244.5326569 815.74327464 254.35112153 800.60589755 263.91137695 785.03515625 C264.527146 784.03871094 265.14291504 783.04226563 265.77734375 782.015625 C266.32640381 781.12133789 266.87546387 780.22705078 267.44116211 779.30566406 C268.82053792 777.26544085 270.18876234 775.65493797 272 774 C270.59131276 779.80409932 268.28477146 784.64277456 265.4375 789.875 C264.53249996 791.56377415 263.62755313 793.25257682 262.72265625 794.94140625 C262.26648926 795.78719238 261.81032227 796.63297852 261.34033203 797.50439453 C259.70218079 800.55451875 258.09568927 803.62057123 256.49023438 806.68798828 C244.82574219 828.90874376 231.82985861 850.48965381 216.34082031 870.27392578 C215.02509279 871.96769737 213.73922309 873.68019516 212.4609375 875.40234375 C203.69212992 887.16229095 193.58512646 897.48887292 183.25 907.875 C182.45795166 908.67180176 181.66590332 909.46860352 180.84985352 910.28955078 C174.50920534 916.61229314 167.91848411 922.51751032 160.9375 928.125 C155.71067662 932.37315326 150.62700061 936.77058919 145.55297852 941.19946289 C141.88259743 944.39477113 138.16977344 947.51451142 134.375 950.5625 C129.77618811 954.28631671 125.44215449 958.22939247 121.12548828 962.27099609 C116.92585982 966.1884214 112.61276885 969.95328879 108.25 973.6875 C103.27805886 977.9502426 98.53861004 982.32959584 93.96875 987.02734375 C92.06874278 988.93112082 90.10604649 990.68994338 88.0625 992.4375 C84.05149384 995.87436611 80.37094014 999.59200743 76.6875 1003.375 C74.69751138 1005.31870982 72.71722858 1007.105375 70.6015625 1008.8984375 C63.83899487 1014.75975257 57.66594718 1021.26826104 51.375 1027.625 C48.80244223 1030.22431543 46.22647506 1032.82018317 43.6484375 1035.4140625 C43.07016205 1036.00063629 42.4918866 1036.58721008 41.89608765 1037.19155884 C39.28120612 1039.82202238 36.65252703 1042.34041278 33.77978516 1044.68896484 C31.52038319 1046.56736806 29.72216011 1048.30654216 27.875 1050.5625 C24.83999077 1054.11779652 21.62689764 1057.45683149 18.3125 1060.75 C17.80227295 1061.25700439 17.2920459 1061.76400879 16.76635742 1062.28637695 C14.64635336 1064.38793188 12.52180876 1066.48486887 10.39746094 1068.58203125 C4.96732457 1073.94891035 -0.40836525 1079.30504183 -5.36767578 1085.11816406 C-8.43293186 1088.65196512 -11.70704088 1091.99293787 -14.9375 1095.375 C-19.95574311 1100.6636016 -24.77575946 1105.97956196 -29.2265625 1111.76171875 C-31.15538075 1114.1961083 -33.20876068 1116.46541291 -35.3125 1118.75 C-39.43169867 1123.25914002 -43.1718699 1127.98957765 -46.90454102 1132.81616211 C-50.32226937 1137.20832959 -53.92290325 1141.36671389 -57.734375 1145.42578125 C-60.35087605 1148.39866779 -62.7586289 1151.49730509 -65.17529297 1154.63354492 C-66.87705301 1156.84055055 -68.5965034 1159.0320381 -70.32421875 1161.21875 C-76.24037718 1168.73638581 -82.04459092 1176.30876108 -87.5625 1184.125 C-88.27635864 1185.13530273 -88.27635864 1185.13530273 -89.00463867 1186.16601562 C-92.16071449 1190.6828653 -95.12147924 1195.30186794 -98 1200 C-99.12398124 1196.62805628 -99.05955917 1194.24899581 -98.96166992 1190.69848633 C-98.92793274 1189.38136658 -98.89419556 1188.06424683 -98.85943604 1186.70721436 C-98.81657103 1185.24881633 -98.77357787 1183.79042208 -98.73046875 1182.33203125 C-98.6892369 1180.80699832 -98.64845511 1179.28195317 -98.60809326 1177.75689697 C-98.49751338 1173.6337049 -98.38004306 1169.51073512 -98.26115036 1165.38777542 C-98.16284029 1161.95024308 -98.06844417 1158.51260794 -97.97407627 1155.07496548 C-97.10915203 1123.58717025 -96.15842557 1092.10143653 -95.11785889 1060.61895752 C-94.992828 1056.77977775 -94.87353252 1052.94044108 -94.75439453 1049.10107422 C-94.6710391 1046.50357621 -94.58754708 1043.90608258 -94.50390625 1041.30859375 C-94.4682103 1040.12113052 -94.43251434 1038.9336673 -94.39573669 1037.71022034 C-94.2065336 1031.96175259 -93.87070498 1026.28716715 -93.24739075 1020.57041931 C-92.74423237 1015.34254391 -92.55806547 1010.0929032 -92.31640625 1004.84765625 C-92.19209398 1002.26887844 -92.06774373 999.69010246 -91.94335938 997.11132812 C-91.75316235 993.11506694 -91.56513631 989.11870536 -91.37768555 985.12231445 C-90.52585104 967.0555251 -89.43364088 949.02999815 -88 931 C-87.86382004 929.26067596 -87.72782071 927.52133776 -87.59204102 925.78198242 C-87.2924362 921.96181616 -86.98802314 918.1420547 -86.68136597 914.32244873 C-85.70665916 902.17690974 -84.77554124 890.03082195 -83.9375 877.875 C-83.35073784 869.40241896 -82.64467191 860.95881602 -81.74975586 852.51342773 C-80.92919052 844.65348658 -80.34196415 836.77862431 -79.78515625 828.89599609 C-79.20194654 820.89093123 -78.38291132 812.92139396 -77.52636719 804.94213867 C-77.01873593 800.20705417 -76.53935206 795.46951524 -76.0703125 790.73046875 C-75.9939859 789.96050568 -75.9176593 789.1905426 -75.83901978 788.39724731 C-75.68194645 786.81178776 -75.52497554 785.22631806 -75.36810303 783.64083862 C-73.98820644 769.71524659 -72.58350053 755.79221871 -71.1293335 741.87417603 C-70.96278431 740.27852931 -70.796945 738.6828083 -70.63189697 737.08700562 C-69.70616754 728.14755061 -68.65415419 719.24414756 -67.4375 710.33911133 C-66.86141683 705.94229795 -66.44275512 701.54226654 -66.0625 697.125 C-64.64361206 681.52740912 -62.7928749 665.96860984 -60.46484375 650.48046875 C-60.0922185 647.69047636 -59.77906018 644.91362958 -59.50390625 642.11328125 C-59.37737671 640.8291333 -59.37737671 640.8291333 -59.24829102 639.51904297 C-59.08683445 637.84033924 -58.93201011 636.16097983 -58.78491211 634.48095703 C-57.84464451 624.63653077 -57.84464451 624.63653077 -53.71484375 620.97265625 C-52.34005859 620.02712891 -52.34005859 620.02712891 -50.9375 619.0625 C-49.94363281 618.37027344 -48.94976563 617.67804687 -47.92578125 616.96484375 C-45.50135999 615.33669436 -43.06802631 613.72497827 -40.625 612.125 C-30.47911473 605.41533256 -21.32557576 597.71103046 -12.48828125 589.38671875 C-10.99842992 587.99853707 -9.48833786 586.63676924 -7.96875 585.28125 C29.91993017 551.39656901 60.28977412 504.24523578 74.88671875 455.56640625 C76 452 76 452 76.9934082 449.61206055 C78.01710718 446.95560764 78.6500373 444.4281044 79.21875 441.640625 C79.42798096 440.61606201 79.63721191 439.59149902 79.8527832 438.53588867 C83.15294992 421.87020494 83.15294992 421.87020494 85 405 C85.04527832 404.3301709 85.09055664 403.6603418 85.13720703 402.97021484 C85.84332726 390.3634575 84.45658233 377.83999944 83.1875 365.3125 C83.06347809 364.07303619 83.06347809 364.07303619 82.93695068 362.80853271 C81.20752057 345.7773415 78.13074572 329.1508541 74.57543945 312.41601562 C74.06293596 310.00205341 73.55557517 307.58705145 73.04882812 305.171875 C71.39575847 297.32693359 69.68738747 289.49638265 67.87109375 281.6875 C67.7127858 281.00026855 67.55447784 280.31303711 67.39137268 279.60498047 C66.45938876 275.65055562 65.29298764 271.84829318 64 268 C63.12791025 264.94621756 62.31349415 261.87740289 61.49609375 258.80859375 C61.00277857 256.97305388 60.50911219 255.13760837 60.01513672 253.30224609 C59.75794861 252.34533875 59.5007605 251.3884314 59.23577881 250.40252686 C54.86916574 234.18372602 50.29334747 218.08310447 45.21875 202.0703125 C38.30266008 180.2087513 32.07053471 158.10852371 26 136 C25.81276367 135.32163086 25.62552734 134.64326172 25.43261719 133.94433594 C24.24780388 129.63989769 23.11468896 125.32299837 22 121 C21.74750488 120.02788574 21.49500977 119.05577148 21.23486328 118.05419922 C17.16257489 102.31560603 13.56473129 86.56066029 10.51367188 70.59326172 C10.04089637 68.20646446 9.52300318 65.83659899 8.98046875 63.46484375 C7.84243763 58.42355081 6.96904291 53.3477785 6.125 48.25 C5.87218262 46.72560303 5.87218262 46.72560303 5.61425781 45.17041016 C4.2150423 36.58760667 2.9547391 27.98709535 1.75 19.375 C1.57484863 18.1365332 1.39969727 16.89806641 1.21923828 15.62207031 C1.0592334 14.45514648 0.89922852 13.28822266 0.734375 12.0859375 C0.52119629 10.5397876 0.52119629 10.5397876 0.30371094 8.96240234 C-0.00114757 5.98880655 0 2.98918228 0 0 Z " fill="#FEFEFE" transform="translate(833,0)"/>
<path d="M0 0 C274.23 0 548.46 0 831 0 C831 12.38548753 831 12.38548753 830.265625 16.5078125 C830.10578125 17.42320801 829.9459375 18.33860352 829.78125 19.28173828 C829.51828125 20.68915283 829.51828125 20.68915283 829.25 22.125 C829.06953125 23.12128418 828.8890625 24.11756836 828.703125 25.14404297 C825.81921144 40.74771762 822.49376321 56.45397041 816 71 C815.71125 71.80179687 815.4225 72.60359375 815.125 73.4296875 C808.77936342 91.02016537 799.7804891 107.64035898 791.25 124.25 C790.94620422 124.84498291 790.64240845 125.43996582 790.32940674 126.05297852 C786.45869851 133.6187516 782.31999941 140.92138671 777.80639648 148.11474609 C776.09759677 150.84411425 774.44482151 153.59939368 772.8125 156.375 C770.79132114 159.76554123 768.66198293 162.99434161 766.2734375 166.13671875 C764.8499386 168.16242853 764.8499386 168.16242853 763.25 171.1015625 C760.60525467 175.78247868 757.61699181 180.22340998 754.625 184.6875 C754.01213135 185.60378174 753.3992627 186.52006348 752.76782227 187.46411133 C742.70157725 202.4574575 732.22728466 217.15702612 721.61767578 231.76904297 C719.96916959 234.04251861 718.32559653 236.31947981 716.68359375 238.59765625 C711.64802611 245.58412633 706.60113994 252.56122274 701.5 259.5 C695.28149172 267.96268768 689.11348899 276.46110614 683 285 C682.39357666 285.84546387 682.39357666 285.84546387 681.77490234 286.70800781 C666.37240913 308.27285716 652.44286309 331.09071496 641 355 C640.54109375 355.93714844 640.0821875 356.87429688 639.609375 357.83984375 C630.8582179 376.2560446 624.92193293 396.61388465 624.796875 417.09375 C624.79117493 417.84354126 624.78547485 418.59333252 624.77960205 419.36584473 C624.77021715 420.94570536 624.76364423 422.525585 624.75976562 424.10546875 C624.75013656 426.466515 624.71908314 428.82665999 624.6875 431.1875 C624.61656138 441.48707369 625.71008601 450.94729922 628 461 C628.23323975 462.03278076 628.46647949 463.06556152 628.70678711 464.12963867 C630.46267582 471.54457057 633.65360103 478.18579075 637 485 C637.60613715 486.27311949 638.21158552 487.54656709 638.81640625 488.8203125 C645.73534231 503.21347359 654.09687524 516.46439903 664 529 C664.42539062 529.56074219 664.85078125 530.12148438 665.2890625 530.69921875 C673.59342459 541.63724996 683.06505062 551.36008137 692.75 561.0625 C693.37692749 561.69292206 694.00385498 562.32334412 694.64978027 562.97286987 C701.11868309 569.46173844 707.56943878 575.77335084 714.86181641 581.34936523 C718.38283028 584.06751719 721.6848834 587.03676728 725 590 C726.72813625 586.8075032 727.80915323 583.61928282 728.84765625 580.14453125 C729.20118164 578.97664062 729.55470703 577.80875 729.91894531 576.60546875 C730.29631836 575.35378906 730.67369141 574.10210938 731.0625 572.8125 C735.26009435 559.03933297 739.9570426 545.48836096 745 532 C745.39445313 530.94111572 745.39445313 530.94111572 745.796875 529.86083984 C747.88797985 524.26858652 750.10003959 518.74340064 752.4375 513.25 C755.34037244 506.34660648 757.77594432 499.2965734 760.22509766 492.22314453 C760.99721141 490.00800027 761.78314387 487.79828156 762.57421875 485.58984375 C765.23673293 478.14796667 767.78797406 470.70342964 770.04296875 463.125 C770.79510362 460.6690494 771.5872332 458.24093845 772.41015625 455.80859375 C775.59480878 446.30716857 778.25443403 436.63516705 781 427 C781.29455078 425.97132813 781.58910156 424.94265625 781.89257812 423.8828125 C789.16836612 398.29547753 794.57467582 372.22414331 799 346 C799.1335791 345.21625 799.2671582 344.4325 799.40478516 343.625 C804.68099701 312.39711233 807.95560028 280.65611557 809 249 C812.0377913 254.25088481 811.78309136 260.07698743 812.125 266 C812.18753967 267.03912537 812.18753967 267.03912537 812.25134277 268.09924316 C813.23465263 285.20807612 813.22141507 302.35020382 813.2458725 319.48162842 C813.24995494 321.72523478 813.25746404 323.9688077 813.26568604 326.21240234 C813.31758906 342.45761297 813.1026404 358.55460419 811.25369263 374.71789551 C810.9026679 377.87555569 810.61524788 381.03810257 810.32946777 384.20223999 C808.38879405 404.82464995 804.1887949 424.97380014 799 445 C798.5671167 446.68754395 798.5671167 446.68754395 798.12548828 448.40917969 C791.6451521 473.4543297 783.35038969 497.88472934 774 522 C772.73920534 525.27187162 771.47992846 528.5443247 770.22094727 531.81689453 C769.34946335 534.08025507 768.47635852 536.34299243 767.60131836 538.60498047 C758.14861809 563.08289274 751.87654204 587.8578221 748.67578125 613.921875 C748.24620155 617.34307664 747.70559833 620.71730598 747.06640625 624.10546875 C745.81270733 630.80560325 744.88377339 637.54814488 743.94140625 644.29727173 C742.37897499 655.48309203 740.76600721 666.65676831 739 677.8125 C736.44950315 694.06251195 734.39918632 710.38161474 732.29748535 726.69439697 C731.83354627 730.29006761 731.36581619 733.88524392 730.8984375 737.48046875 C729.13069813 751.09431625 727.39370952 764.71180514 725.70703125 778.3359375 C725.25915415 781.94713812 724.79871185 785.55626693 724.32421875 789.1640625 C721.83114179 808.30406227 719.88996645 827.50606383 717.88031006 846.70153809 C717.33157673 851.92431349 716.76260835 857.14413589 716.16944885 862.36204529 C715.28237763 870.17070464 714.55119729 877.97171859 714 885.8125 C713.43008106 893.59573824 712.7915204 901.36129797 712 909.125 C710.97987174 919.30635821 710.36319224 929.50920522 709.75 939.72119141 C709.22342317 948.48530175 708.64135055 957.24343557 708 966 C707.74873835 969.49926021 707.49898617 972.99862405 707.25 976.49804688 C707.08518294 978.80677341 706.91855814 981.11537171 706.75 983.42382812 C704.98984932 1007.83216767 704.17443736 1032.26917897 703.37953186 1056.72488403 C703.14617082 1063.84317836 702.88828876 1070.95973936 702.59936523 1078.07598877 C700.18415756 1138.00798637 700.33625301 1198.02816703 700 1258 C696.08746117 1254.79995438 692.86372884 1251.83539013 689.75 1247.8125 C682.97123985 1239.34759447 675.24619254 1232.01065191 667 1225 C665.91347062 1224.06188299 664.82758942 1223.123015 663.7421875 1222.18359375 C656.9414033 1216.30777582 650.08633943 1210.53106864 643 1205 C642.05253906 1204.25621094 641.10507812 1203.51242187 640.12890625 1202.74609375 C627.42338994 1192.86402551 614.2822876 1183.57174924 601.11865234 1174.31347656 C597.26367347 1171.60214441 593.42364048 1168.87216568 589.60009766 1166.11669922 C578.63298983 1158.22274077 567.33305139 1150.85481419 556 1143.5 C504.52194763 1110.08815897 504.52194763 1110.08815897 484.29296875 1091.14453125 C482.30162808 1089.2821019 480.26948244 1087.50899146 478.1875 1085.75 C469.18255394 1077.91718535 460.57452262 1069.22276837 453 1060 C452.27683594 1059.13117188 451.55367188 1058.26234375 450.80859375 1057.3671875 C445 1050.27565217 445 1050.27565217 445 1048 C444.34 1048 443.68 1048 443 1048 C441.546875 1046.296875 441.546875 1046.296875 439.75 1043.75 C439.04488281 1042.75484375 438.33976562 1041.7596875 437.61328125 1040.734375 C437.20803223 1040.15494141 436.8027832 1039.57550781 436.38525391 1038.97851562 C434.79999619 1036.71434069 433.20264904 1034.45890442 431.60546875 1032.203125 C425.52937466 1023.59893155 419.47404863 1015.00441333 414 1006 C413.34257812 1004.92621094 412.68515625 1003.85242188 412.0078125 1002.74609375 C405.87546932 992.66133413 400.04093122 982.40506084 394.23144531 972.13183594 C393.22898226 970.39640624 392.16591087 968.6960974 391.0859375 967.0078125 C390.72757812 966.34523438 390.36921875 965.68265625 390 965 C390.33 964.34 390.66 963.68 391 963 C394.70610754 968.08330158 398.40711381 973.16973393 402.07421875 978.28125 C414.4537953 995.52515851 427.3979122 1011.92024977 441.7734375 1027.55078125 C443.71296126 1029.68425739 445.58039219 1031.85773457 447.4375 1034.0625 C451.86383349 1039.1569593 456.94687522 1043.54265849 462 1048 C462.66902344 1048.59554688 463.33804687 1049.19109375 464.02734375 1049.8046875 C466.00497207 1051.55235904 467.99965557 1053.27836317 470 1055 C470.98871094 1055.8559375 471.97742188 1056.711875 472.99609375 1057.59375 C479.76869266 1063.42025149 486.68867939 1068.85535012 494 1074 C495.10227142 1074.79459041 496.20379082 1075.59022474 497.3046875 1076.38671875 C511.34896044 1086.48632628 525.83683777 1095.94701721 540.24853516 1105.50976562 C545.57859113 1109.04675205 550.89962049 1112.59724146 556.22021484 1116.1484375 C559.41183528 1118.27774097 562.60642564 1120.40221048 565.80859375 1122.515625 C578.88153162 1131.15648507 591.7338503 1140.07653253 604.0703125 1149.74609375 C606.25138426 1151.42406496 608.44202179 1153.04690538 610.68310547 1154.64086914 C611.30635712 1155.08459366 611.92960876 1155.52831818 612.57174683 1155.98548889 C613.04307037 1156.32027756 613.51439392 1156.65506622 614 1157 C613.78434115 1080.8877163 613.78434115 1080.8877163 586 1011 C585.071875 1009.2675 585.071875 1009.2675 584.125 1007.5 C578.24383623 997.25138972 570.12136022 988.48998934 562 980 C561.16339844 979.12214844 560.32679688 978.24429688 559.46484375 977.33984375 C553.67119179 971.39928461 547.51059858 966.13499967 541 961 C539.88236018 960.10342814 538.76519084 959.20626955 537.6484375 958.30859375 C529.98527582 952.18084829 522.11989284 946.51277039 514 941 C511.97868215 939.58402473 509.9578587 938.16734348 507.9375 936.75 C493.70606977 926.90274081 479.02987757 917.70589295 464.38085938 908.49707031 C447.45827293 897.85624791 430.57350097 887.17921705 414 876 C413.33677734 875.55366211 412.67355469 875.10732422 411.99023438 874.64746094 C402.73548372 868.40516268 393.77371128 861.90040536 385 855 C383.43791738 853.79112714 381.87545828 852.58274049 380.3125 851.375 C378.87472473 850.25035183 377.43722574 849.12535035 376 848 C375.23558594 847.41089844 374.47117187 846.82179688 373.68359375 846.21484375 C356.80071037 833.01746942 339.62695026 817.33530459 327 800 C326.13674984 798.8635694 325.27204645 797.7282419 324.40625 796.59375 C318.40073194 788.65342156 312.97198932 780.50484368 308.05419922 771.84863281 C307.36178544 770.6344232 306.6605229 769.42520892 305.94970703 768.22167969 C299.92946711 758.02488066 296.17853095 747.45537899 292.74267578 736.14379883 C291.99398492 733.98263694 291.06754733 732.02020296 290 730 C284.23978287 748.54789916 284.64990354 768.46351971 284.75 787.6875 C284.75564972 789.34165924 284.75564972 789.34165924 284.76141357 791.02923584 C284.88079234 820.87770737 288.1570481 849.57810775 293 879 C293.19964355 880.216875 293.39928711 881.43375 293.60498047 882.6875 C298.63741293 912.56784833 306.57299798 942.22388878 316 971 C316.59011753 972.83584952 317.17996622 974.67178548 317.76953125 976.5078125 C324.38641483 996.9247731 332.33494063 1016.46931795 341.52148438 1035.86669922 C342.91099745 1038.81138397 344.27923533 1041.76488743 345.640625 1044.72265625 C350.81550732 1055.89661359 356.51985888 1066.53244531 363 1077 C363.46132324 1077.75490723 363.92264648 1078.50981445 364.39794922 1079.28759766 C371.72586541 1091.26587448 379.57973309 1102.76408969 388 1114 C388.46760742 1114.62745117 388.93521484 1115.25490234 389.41699219 1115.90136719 C396.64364715 1125.54210991 404.62184128 1134.35084963 413 1143 C413.59780273 1143.6197168 414.19560547 1144.23943359 414.81152344 1144.87792969 C449.9865611 1181.19439637 496.09846482 1207.18606189 547.5625 1208.375 C560.69680934 1208.05500575 574.05954174 1206.25210548 586.40625 1201.671875 C589.41936846 1200.89136841 591.0541627 1201.03721415 594 1202 C595.96484375 1203.20703125 595.96484375 1203.20703125 597.9375 1204.8125 C598.70707031 1205.43769531 599.47664062 1206.06289062 600.26953125 1206.70703125 C601.17058594 1207.46371094 602.07164062 1208.22039062 603 1209 C603.54962402 1209.45938965 604.09924805 1209.9187793 604.66552734 1210.39208984 C610.75508014 1215.49477834 616.82027661 1220.58065174 622.32250977 1226.32324219 C623.99771366 1227.99771466 625.73853642 1229.52493316 627.54296875 1231.05859375 C632.7275105 1235.56867052 637.57841483 1240.39441814 642.4375 1245.25 C643.32759766 1246.12785156 644.21769531 1247.00570313 645.13476562 1247.91015625 C650.45858207 1253.22230619 655.35106793 1258.71413386 660.05053711 1264.58496094 C662.28109249 1267.34822378 664.6223193 1269.92169587 667.0625 1272.5 C671.00621815 1276.79561915 674.50679499 1281.22268521 677.8671875 1285.984375 C679.45225549 1288.22553341 681.05719547 1290.43886714 682.6953125 1292.640625 C688.10874399 1299.91909487 693.27229548 1307.24966473 698 1315 C698.61488281 1315.91265625 698.61488281 1315.91265625 699.2421875 1316.84375 C705.07630456 1325.87172677 704.31112112 1337.50843623 704.46331787 1347.86611938 C704.5268256 1351.99332921 704.62577186 1356.11964891 704.7265625 1360.24609375 C704.74679474 1361.07823898 704.76702698 1361.91038422 704.78787231 1362.76774597 C705.10119904 1374.81145445 705.94785872 1386.81829193 706.8392334 1398.83154297 C707.01174555 1401.15842671 707.1822476 1403.48545272 707.35253906 1405.8125 C708.04391082 1415.23957131 708.7531676 1424.66516551 709.47599792 1434.08987427 C709.83103445 1438.73342695 710.17188626 1443.3776058 710.49609375 1448.0234375 C711.6354816 1464.10465523 713.32376083 1480.11519703 715.09765625 1496.13671875 C715.17364044 1496.8272937 715.24962463 1497.51786865 715.32791138 1498.22937012 C715.80627161 1502.50039225 716.37318628 1506.74891276 717 1511 C712.68368077 1507.86855271 708.5375212 1504.6366336 704.49926758 1501.15136719 C694.36103494 1492.40441764 683.47626953 1484.90938475 672.31591797 1477.53442383 C668.9165877 1475.28779082 665.5619612 1472.99972218 662.25 1470.625 C649.60976834 1461.71843412 636.21172274 1453.86908631 622.9375 1445.95703125 C617.37382241 1442.63659512 611.85308263 1439.24671057 606.34936523 1435.82788086 C595.39206482 1429.07575089 583.8807321 1423.30930229 572.4375 1417.4375 C571.67453613 1417.04559479 570.91157227 1416.65368958 570.12548828 1416.24990845 C559.93887068 1411.0188529 549.73734033 1405.81866303 539.5 1400.6875 C538.4886499 1400.17952881 537.4772998 1399.67155762 536.43530273 1399.14819336 C530.02161262 1395.9480882 523.54546235 1392.92054585 517 1390 C516.30003906 1389.68651611 515.60007812 1389.37303223 514.87890625 1389.05004883 C513.00526438 1388.21465348 511.12874473 1387.38635045 509.25 1386.5625 C508.57880127 1386.26811035 507.90760254 1385.9737207 507.21606445 1385.67041016 C501.95116517 1383.37821749 496.63620256 1381.23340463 491.29394531 1379.12915039 C487.64527169 1377.68387774 484.05991986 1376.15112974 480.5 1374.5 C474.98071989 1371.9412847 469.34585377 1369.70529618 463.69140625 1367.46875 C460.44627829 1366.17756681 457.22006099 1364.85216558 454 1363.5 C448.8124266 1361.32275934 443.5919906 1359.23714542 438.36206055 1357.16455078 C434.97162594 1355.81362326 431.62548537 1354.4054552 428.3125 1352.875 C424.13987175 1350.97621973 419.85597015 1349.58013504 415.48046875 1348.22265625 C412.5101907 1347.17922524 409.65779326 1346.02950996 406.76171875 1344.80078125 C398.47990184 1341.31588676 390.05672222 1338.22443844 381.625 1335.125 C380.78273865 1334.8149704 379.94047729 1334.5049408 379.07269287 1334.18551636 C366.15050712 1329.43720542 353.20197525 1324.91548888 340 1321 C338.47270264 1320.54222168 338.47270264 1320.54222168 336.91455078 1320.07519531 C333.67419004 1319.10576106 330.43163333 1318.14423016 327.1875 1317.1875 C326.20217285 1316.89689697 325.2168457 1316.60629395 324.20166016 1316.30688477 C319.1039969 1314.82673464 314.01953995 1313.49397265 308.81958008 1312.4230957 C306.43715414 1311.86912493 304.2689937 1310.90759748 302 1310 C299.8979262 1309.50758507 297.79144198 1309.07052354 295.671875 1308.66015625 C264.34656586 1300.92042344 232.45702955 1285.51762243 206.62304688 1266.20996094 C205.07601059 1265.05666493 203.51488533 1263.92233987 201.953125 1262.7890625 C194.49299486 1257.32224755 187.4837554 1251.40988198 180.52441406 1245.32910156 C179.22833446 1244.19907956 177.92365616 1243.078932 176.6171875 1241.9609375 C172.63599008 1238.54179148 168.89557889 1234.96327814 165.25 1231.1875 C163.32082666 1229.31191481 161.35088485 1227.56215973 159.3125 1225.80859375 C154.66067654 1221.76845487 150.33049698 1217.44178074 146 1213.0625 C145.22527344 1212.28326172 144.45054687 1211.50402344 143.65234375 1210.70117188 C141.76589243 1208.8030758 139.88183755 1206.90266851 138 1205 C138.33 1204.34 138.66 1203.68 139 1203 C139.71800781 1203.63164063 140.43601563 1204.26328125 141.17578125 1204.9140625 C155.20919598 1217.10243738 170.32138408 1228.026227 186 1238 C186.85561523 1238.54551514 186.85561523 1238.54551514 187.72851562 1239.10205078 C207.42746085 1251.54495757 228.52589513 1262.30628363 250.62109375 1269.76171875 C253.23767081 1270.72062618 255.69684591 1271.75380519 258.22265625 1272.9140625 C263.36490552 1275.22988095 268.62734193 1276.98674897 274 1278.6875 C275.59896118 1279.1968811 275.59896118 1279.1968811 277.23022461 1279.71655273 C288.38194684 1283.21155992 299.65232654 1286.24282329 310.93554688 1289.27714539 C321.38685089 1292.08857117 331.7852728 1295.0607407 342.15722656 1298.15283203 C344.10106168 1298.73210959 346.04576718 1299.3084723 347.99121094 1299.88232422 C360.18887226 1303.48269672 372.16270023 1307.35009226 384 1312 C386.35395745 1312.89638294 388.70811329 1313.79224512 391.0625 1314.6875 C395.42465116 1316.35554992 399.71546057 1318.14390114 404 1320 C396.41763891 1278.59631772 380.79311135 1239.12711556 351.78515625 1208.12890625 C350 1206 350 1206 349 1203 C347.6735064 1202.31982579 346.33826124 1201.65671842 345 1201 C342.94404115 1199.29939206 340.93611278 1197.5773742 338.9375 1195.8125 C328.61116058 1186.92812039 317.24812185 1180.80097249 305 1175 C304.37528809 1174.7009375 303.75057617 1174.401875 303.10693359 1174.09375 C290.80730412 1168.26127156 277.96041834 1164.10152672 265 1160 C263.98824707 1159.67966797 262.97649414 1159.35933594 261.93408203 1159.02929688 C251.1240263 1155.62900807 240.30880731 1152.42609009 229.27734375 1149.82421875 C226 1149 226 1149 223.23242188 1148.06835938 C219.84731582 1146.9495358 216.44808531 1146.00267485 213.00390625 1145.08203125 C211.63764523 1144.71462302 210.27143635 1144.34702091 208.90527344 1143.97924805 C208.19624878 1143.78889984 207.48722412 1143.59855164 206.75671387 1143.4024353 C193.19300525 1139.75570302 179.71261883 1135.91156647 166.30615234 1131.71826172 C164.20322251 1131.06329458 162.09718949 1130.42056339 159.98828125 1129.78515625 C151.77147149 1127.3023118 143.87315343 1124.3611848 135.921875 1121.14453125 C133.19951954 1120.07815404 130.45823374 1119.07906344 127.70800781 1118.08740234 C113.18990505 1112.80513004 98.74153338 1106.66444809 85.5625 1098.55859375 C83.02928793 1097.01781385 80.44943415 1095.66628316 77.8125 1094.3125 C65.79284854 1087.79750051 54.91175595 1079.36313477 45 1070 C43.6912398 1068.89140313 42.37883641 1067.78709026 41.0625 1066.6875 C24.15297523 1051.85338974 11.70620858 1032.66264329 3.2265625 1011.9609375 C2.14619994 1009.14154137 2.14619994 1009.14154137 0.93886466 1007.24874662 C-0.36804676 1004.11846302 -0.24924051 1001.4483814 -0.24839699 998.0591166 C-0.25095317 997.3561048 -0.25350934 996.65309299 -0.25614297 995.9287778 C-0.26230237 993.55654513 -0.2541235 991.18457531 -0.24609566 988.81235123 C-0.24757417 987.09373318 -0.24993053 985.3751157 -0.25308865 983.65649992 C-0.25925145 978.90331354 -0.25285604 974.15021213 -0.24453239 969.39703206 C-0.23768538 964.23757417 -0.24240148 959.07812522 -0.24568737 953.91866565 C-0.24984285 944.86606369 -0.24653367 935.81348797 -0.23841095 926.76088905 C-0.22636612 913.29990104 -0.22573699 899.83892966 -0.22749493 886.37793724 C-0.230126 863.73701157 -0.22344203 841.09609877 -0.21146011 818.45517731 C-0.19962033 796.02930903 -0.19191097 773.60344554 -0.18975449 751.17757416 C-0.18968566 750.48144088 -0.18961684 749.7853076 -0.18954593 749.06807938 C-0.18891954 742.71009323 -0.18834416 736.35210709 -0.18782998 729.99412093 C-0.18655109 714.18797889 -0.18463239 698.38183696 -0.18227959 682.57569504 C-0.18217295 681.85587114 -0.18206632 681.13604724 -0.18195645 680.3944105 C-0.1767118 645.36824451 -0.16409602 610.3420817 -0.15087891 575.31591797 C-0.14629564 563.15911868 -0.14174494 551.00231937 -0.1373291 538.84552002 C-0.1370552 538.0915672 -0.1367813 537.33761438 -0.13649911 536.56081451 C-0.12381531 501.52360709 -0.11638272 466.48639914 -0.11026346 431.44919003 C-0.10986232 429.15711511 -0.10945772 426.8650402 -0.10905199 424.57296528 C-0.10482526 400.68658852 -0.10085107 376.80021172 -0.09698644 352.9138349 C-0.09687601 352.23141432 -0.09676559 351.54899374 -0.09665181 350.84589375 C-0.09635484 349.00920437 -0.09605844 347.17251499 -0.09576209 345.33582561 C-0.07697818 230.22387773 -0.03683975 115.1119464 0 0 Z " fill="#FEFEFE" transform="translate(0,0)"/>
<path d="M0 0 C0.33 0 0.66 0 1 0 C1.06993164 0.648479 1.13986328 1.29695801 1.21191406 1.96508789 C2.52529231 13.8900134 3.86892421 25.49234362 7.39794922 36.99023438 C8.09655142 39.32230791 8.73891699 41.66679842 9.37890625 44.015625 C12.17261806 54.19966294 15.27840311 64.13697603 19.18603516 73.94824219 C20.03884365 76.09791302 20.86968564 78.25531137 21.69921875 80.4140625 C29.35590515 100.14285955 37.95958156 119.71713626 47.71044922 138.50341797 C49.04778891 141.09251977 50.37006913 143.68908969 51.69073486 146.28672791 C58.67372728 160.01430286 65.66246998 173.6909612 73.69580078 186.84179688 C75.22677206 189.37526489 76.7217999 191.92837502 78.21484375 194.484375 C83.28632896 203.16032057 88.35134918 211.77892375 94.03515625 220.0703125 C96.92278279 224.37591867 99.62847638 228.79283915 102.32495117 233.22021484 C104.82896971 237.28556259 107.52488061 241.1198236 110.42041016 244.91552734 C113.81300169 249.39248971 117.04809377 253.98746147 120.3203125 258.55273438 C122.61598908 261.74448283 124.90484889 264.88392804 127.3984375 267.92578125 C129 270 129 270 129 272 C129.66 272 130.32 272 131 272 C132.41015625 273.6171875 132.41015625 273.6171875 134.0625 275.875 C136.69403668 279.36192231 139.42583824 282.65209818 142.375 285.875 C145.53028669 289.3239259 148.52060931 292.8474561 151.4375 296.5 C159.0207795 305.83124513 167.62434214 313.52320955 177 321 C178.79187564 322.49975036 180.58354169 323.99975117 182.375 325.5 C206.35655645 345.08720875 232.91093688 358.21521126 263 365 C264.40378906 365.32291016 264.40378906 365.32291016 265.8359375 365.65234375 C284.64390813 369.71652668 305.11028115 369.12226758 324 366 C325.38533764 365.79114184 326.77075683 365.58282397 328.15625 365.375 C349.15912668 362.09014432 369.78031815 355.11528802 388.24462891 344.52612305 C391.48216573 342.68646458 394.25405337 341.25095394 398 341 C400.26953125 341.6796875 400.26953125 341.6796875 402.8125 342.875 C410.12071162 346.12915393 417.59451492 348.86674344 425.10668945 351.61279297 C431.05131778 353.81091282 436.82364856 356.22620878 442.57299805 358.89306641 C445.46175439 360.21060199 448.39388555 361.34655597 451.375 362.4375 C455.60126123 364.03128376 459.71454753 365.74461554 463.80078125 367.66796875 C469.03655718 370.10563438 474.29675521 372.47641038 479.58203125 374.8046875 C480.33222534 375.13580032 481.08241943 375.46691315 481.85534668 375.80805969 C484.94456365 377.17120841 488.03413892 378.53349685 491.1262207 379.89013672 C504.85488839 385.91778219 518.29714062 392.38611478 531.5 399.5 C536.81313206 402.33968292 542.15703354 405.09074144 547.5625 407.75 C554.55700179 411.20934877 561.44289881 414.86198194 568.3125 418.5625 C569.30258057 419.09262695 570.29266113 419.62275391 571.31274414 420.16894531 C577.13192694 423.32158945 582.72272851 426.70132696 588.27709961 430.29760742 C590.95447211 431.97153537 593.67022741 433.49358141 596.453125 434.984375 C602.37874657 438.15956612 608.06370032 441.66731317 613.75 445.25 C615.32696655 446.24060425 615.32696655 446.24060425 616.93579102 447.2512207 C635.15057029 458.73149995 652.92076296 470.88116575 670 484 C670.56315918 484.4316748 671.12631836 484.86334961 671.70654297 485.30810547 C678.60776166 490.61253468 685.28137393 496.03100395 691.68359375 501.9375 C694.00201344 504.00179275 696.39761312 505.88088209 698.875 507.75 C702.14171796 510.23567021 704.47894208 512.74702204 707 516 C708.92992007 517.76767016 710.91430984 519.46215684 712.90234375 521.1640625 C723.91326393 530.80118072 723.91326393 530.80118072 725 539.109375 C725.16371094 540.33140625 725.32742188 541.5534375 725.49609375 542.8125 C725.74552734 544.7615625 725.74552734 544.7615625 726 546.75 C726.17759553 548.0886467 726.35598267 549.42718861 726.53515625 550.765625 C727.23450087 556.01263621 727.91280449 561.26222771 728.5625 566.515625 C729.55331838 574.40678569 730.94074872 582.16862128 732.47094727 589.96948242 C733.59483201 595.73516159 734.57109513 601.5030729 735.4375 607.3125 C736.83143541 616.52350137 738.73032148 625.60587305 740.671875 634.71484375 C742.2639421 642.19027977 743.74402051 649.68740111 745.21240234 657.18798828 C747.5609901 669.07013212 750.41715689 680.81926158 753.375 692.5625 C753.99621675 695.03382325 754.61730987 697.50517758 755.23828125 699.9765625 C755.53943848 701.17442383 755.8405957 702.37228516 756.15087891 703.60644531 C756.89411245 706.57681514 757.62818303 709.54913159 758.35546875 712.5234375 C761.27497074 724.43853877 764.52703533 736.23453317 768 748 C768.26006836 748.88461914 768.52013672 749.76923828 768.78808594 750.68066406 C773.78087212 767.59013697 779.33764176 784.30572637 785 801 C785.34675781 802.02625488 785.69351563 803.05250977 786.05078125 804.10986328 C798.58281001 842.44526901 798.58281001 842.44526901 815.12475586 879.10131836 C816 881 816 881 816 884 C546.72 884 277.44 884 0 884 C0 592.28 0 300.56 0 0 Z " fill="#FEFEFE" transform="translate(0,1036)"/>
<path d="M0 0 C0.33 0 0.66 0 1 0 C1 277.53 1 555.06 1 841 C-213.83 841 -428.66 841 -650 841 C-664.25438596 811.39473684 -664.25438596 811.39473684 -667.8125 802.0546875 C-668.9311675 799.17706255 -670.17630314 796.41303651 -671.5 793.625 C-673.90287822 788.44427211 -675.77334593 783.13971727 -677.62890625 777.74609375 C-679.44911103 772.47951138 -681.43523111 767.29996169 -683.5 762.125 C-686.87480396 753.61446294 -689.63798143 744.96056355 -692.31054688 736.20849609 C-693.2635582 733.15575513 -694.28485163 730.12721805 -695.30371094 727.09594727 C-696.59044413 723.22266378 -697.753952 719.31195839 -698.9375 715.40625 C-699.72299198 712.88805512 -700.54126566 710.39478078 -701.390625 707.8984375 C-703.35706546 702.02622244 -705.0529416 696.07966377 -706.75 690.125 C-707.27062012 688.30234619 -707.27062012 688.30234619 -707.80175781 686.44287109 C-710.53431109 676.80185621 -713.10141687 667.12357651 -715.56542969 657.41064453 C-716.92471572 652.06629298 -718.3568234 646.7634281 -719.92578125 641.4765625 C-722.55899724 632.33775406 -724.47821375 623.05229062 -726.4375 613.75 C-726.83534785 611.87709435 -727.23329799 610.00421042 -727.63134766 608.13134766 C-730.38678367 595.12008394 -733.02194329 582.09002942 -735.44042969 569.01147461 C-735.85225743 566.79511544 -736.27052207 564.57994992 -736.69238281 562.36547852 C-738.60314777 552.32858457 -740.3364707 542.26808669 -742 532.1875 C-742.12973206 531.40306519 -742.25946411 530.61863037 -742.39312744 529.8104248 C-743.03634406 525.92062308 -743.67782703 522.03054197 -744.31738281 518.14013672 C-744.88894327 514.66635884 -745.47034416 511.19430884 -746.0546875 507.72265625 C-746.32859416 506.06518163 -746.60208665 504.40763846 -746.875 502.75 C-747.05482422 501.70042114 -747.05482422 501.70042114 -747.23828125 500.62963867 C-748.62547028 492.04640655 -748.56363142 486.67196633 -744 479.1875 C-743.38922607 478.14710571 -743.38922607 478.14710571 -742.76611328 477.08569336 C-739.20525037 471.11706807 -735.25226352 465.49618293 -731 460 C-730.46117187 459.26910156 -729.92234375 458.53820313 -729.3671875 457.78515625 C-721.35885155 447.08803118 -711.7722424 437.67204976 -702.38113403 428.2059021 C-700.97853087 426.79137955 -699.57990176 425.37291988 -698.18139648 423.9543457 C-692.09968164 417.86497884 -685.74209421 412.34316392 -679 407 C-677.7574751 405.98638141 -676.51636531 404.97102299 -675.27734375 403.953125 C-658.10496927 390.0054557 -640.02334534 377.40716498 -620.96972656 366.17089844 C-619.02970053 365.0176554 -617.10377889 363.84366115 -615.1796875 362.6640625 C-598.66154307 352.62245671 -581.22918838 343.99658349 -563.4296875 336.46875 C-560.18079205 335.07742347 -557.00034537 333.58747438 -553.8125 332.0625 C-526.85049771 319.61345885 -497.5755527 310.89109344 -469 303 C-467.66291992 302.62415771 -467.66291992 302.62415771 -466.29882812 302.24072266 C-453.57695933 298.68146343 -440.73621334 295.77727167 -427.8125 293.0625 C-427.05495422 292.90080322 -426.29740845 292.73910645 -425.51690674 292.57250977 C-423.35298678 292.1129099 -421.18687208 291.66580798 -419.01953125 291.22265625 C-417.13391479 290.83219116 -417.13391479 290.83219116 -415.21020508 290.43383789 C-410.55941416 289.80531439 -408.88744551 290.36916524 -405.08203125 293.07421875 C-403.98811221 293.94018921 -402.89845902 294.81156808 -401.8125 295.6875 C-400.6394357 296.60727611 -399.46495519 297.52524889 -398.2890625 298.44140625 C-397.7209082 298.88500488 -397.15275391 299.32860352 -396.56738281 299.78564453 C-373.38090895 317.74974437 -340.22945599 329.12008701 -311.08984375 329.16796875 C-310.35987686 329.17129715 -309.62990997 329.17462555 -308.87782288 329.17805481 C-307.34083681 329.18308343 -305.80383998 329.1854644 -304.2668457 329.18530273 C-301.96741725 329.18747178 -299.66848345 329.20562284 -297.36914062 329.22460938 C-284.53355691 329.27482927 -272.04860453 328.20660126 -259.625 324.75 C-258.82884277 324.53239014 -258.03268555 324.31478027 -257.21240234 324.09057617 C-237.37981543 318.54744089 -218.00555181 310.76059624 -201 299 C-200.05511719 298.38769531 -199.11023437 297.77539062 -198.13671875 297.14453125 C-185.65325302 289.03270721 -174.26090018 279.70146793 -163 270 C-162.24847656 269.36191406 -161.49695312 268.72382812 -160.72265625 268.06640625 C-156.2690321 264.24775426 -152.14310605 260.17126922 -148.02734375 255.9921875 C-146 254 -146 254 -143.375 251.9375 C-140.51010957 249.60035255 -138.27664056 246.94115624 -135.8828125 244.1328125 C-134.02411088 242.02731232 -132.07929047 240.07851861 -130.0625 238.125 C-126.48944593 234.59967757 -123.41011955 230.84348811 -120.32421875 226.890625 C-117.51944022 223.40232901 -114.57770369 220.05049117 -111.625 216.6875 C-106.2890536 210.57587357 -101.21403979 204.33467142 -96.36474609 197.82861328 C-95.40304974 196.54004339 -94.43679889 195.25486645 -93.46728516 193.97216797 C-76.12208282 171.02305136 -60.57950769 146.84115052 -46.14648438 121.97265625 C-45.10855658 120.18678389 -44.06255701 118.40560877 -43.015625 116.625 C-32.1972277 98.02808564 -22.9031387 79.00952736 -15 59 C-14.40761672 57.53382805 -13.815175 56.06767971 -13.22265625 54.6015625 C-6.37032221 37.33241372 -1.62357281 18.50873005 0 0 Z " fill="#FEFEFE" transform="translate(1508,1079)"/>
<path d="M0 0 C-12.35594046 29.58464617 -27.83337389 57.29125981 -47 83 C-48.14082031 84.54494141 -48.14082031 84.54494141 -49.3046875 86.12109375 C-54.94612262 93.67076198 -61.07269345 100.59984275 -67.54492188 107.44335938 C-68.95268053 108.9493777 -70.3326811 110.47564164 -71.703125 112.015625 C-75.89307466 116.71967891 -80.0792243 121.16834036 -84.91015625 125.21484375 C-86.41301301 126.49859242 -87.87508069 127.83066035 -89.30859375 129.19140625 C-101.2358301 140.50140358 -114.88715413 149.64828847 -129 158 C-129.77601563 158.495 -130.55203125 158.99 -131.3515625 159.5 C-139.79084811 164.83618059 -148.9312388 168.86593823 -158 173 C-158.98419922 173.44956055 -158.98419922 173.44956055 -159.98828125 173.90820312 C-184.1864495 184.86733072 -210.40862751 191.38888573 -236.5625 195.625 C-237.2445752 195.73610107 -237.92665039 195.84720215 -238.62939453 195.96166992 C-241.08249287 196.33969852 -243.53995124 196.67007599 -246 197 C-247.15886719 197.17208984 -248.31773437 197.34417969 -249.51171875 197.52148438 C-263.21795123 199.4064485 -276.96327836 199.30746377 -290.77294922 199.26074219 C-294.22707406 199.24918786 -297.68089341 199.25603775 -301.13500786 199.26788712 C-304.46242592 199.27683409 -307.78976077 199.27058589 -311.1171875 199.265625 C-312.35250214 199.26967346 -313.58781677 199.27372192 -314.86056519 199.27789307 C-316.00340973 199.27158875 -317.14625427 199.26528442 -318.32373047 199.25878906 C-319.32644989 199.25719788 -320.32916931 199.25560669 -321.36227417 199.25396729 C-324.05240758 198.99495406 -325.69869291 198.37614843 -328 197 C-317.9979955 177.33514112 -307.05673149 158.79321671 -294 141 C-293.5683252 140.40848145 -293.13665039 139.81696289 -292.69189453 139.20751953 C-286.73485224 131.09189261 -280.20029088 123.71092739 -273.29980469 116.39697266 C-271.62728553 114.59942295 -270.02897131 112.74440768 -268.4375 110.875 C-261.59770865 102.98421632 -254.00755804 95.69310983 -246 89 C-245.19304687 88.31550781 -244.38609375 87.63101562 -243.5546875 86.92578125 C-212.27686025 60.80013254 -176.26127206 44.89468662 -136.375 36.875 C-135.15554688 36.62363281 -133.93609375 36.37226562 -132.6796875 36.11328125 C-127.0004415 34.95437528 -121.32431085 33.86706129 -115.6015625 32.9453125 C-111.66917968 32.30850125 -107.84821839 31.52748341 -103.99902344 30.50927734 C-101.71118432 29.92642043 -99.41302723 29.43766353 -97.1015625 28.95703125 C-69.51195843 23.21025191 -42.7000409 15.58596195 -16.61328125 4.89453125 C-15.86771973 4.5898291 -15.1221582 4.28512695 -14.35400391 3.97119141 C-12.65421381 3.269909 -10.95912112 2.55720339 -9.26708984 1.83740234 C-8.36812988 1.46180176 -7.46916992 1.08620117 -6.54296875 0.69921875 C-5.72207764 0.35076904 -4.90118652 0.00231934 -4.05541992 -0.35668945 C-2 -1 -2 -1 0 0 Z " fill="#211F20" transform="translate(1102,1038)"/>
<path d="M0 0 C0.90516357 0.67385742 0.90516357 0.67385742 1.82861328 1.36132812 C14.52955426 10.83485686 26.93422576 20.58973474 37.98046875 31.984375 C39.96709494 33.96715859 42.03512749 35.76277609 44.1875 37.5625 C48.12347393 40.92267013 51.08248213 44.74528644 54 49 C45.64379384 53.10213757 36.93833103 55.52386804 28 58 C26.73414063 58.35191406 25.46828125 58.70382812 24.1640625 59.06640625 C15.47700582 61.42802614 6.73569929 63.51517426 -2.03613281 65.53222656 C-3.94231102 65.98625906 -5.8367976 66.48853046 -7.73046875 66.9921875 C-13.21222107 68.36980764 -18.79106487 69.15614676 -24.375 70 C-25.42816406 70.165 -26.48132813 70.33 -27.56640625 70.5 C-31.04050952 71.03128461 -34.51813146 71.52225899 -38 72 C-39.30283936 72.18457764 -40.60567871 72.36915527 -41.94799805 72.55932617 C-54.16110872 74.17363386 -66.32191291 74.33934234 -78.62866211 74.31567383 C-82.03337065 74.31252692 -85.43719569 74.3360215 -88.84179688 74.36132812 C-117.13663593 74.44250932 -145.78285099 70.81640924 -172.91308594 62.61914062 C-174.92697867 62.02166379 -176.94754603 61.46548693 -178.9765625 60.921875 C-187.94941181 58.4768256 -196.62424176 55.37603808 -205.3125 52.0625 C-206.38564453 51.65555908 -207.45878906 51.24861816 -208.56445312 50.8293457 C-214.95648084 48.34874725 -221.05180095 45.53455367 -227.14892578 42.40209961 C-229.77570469 41.11030382 -232.39564024 40.01137721 -235.12890625 38.96875 C-240.35262468 36.94465021 -245.10524344 34.31916238 -249.9375 31.5 C-250.83992432 30.97809082 -251.74234863 30.45618164 -252.67211914 29.91845703 C-276.30561493 16.14892836 -298.38299218 0.90129871 -318.5 -17.6875 C-319.48021118 -18.58807129 -319.48021118 -18.58807129 -320.48022461 -19.50683594 C-322.0283555 -20.96157951 -323.52032542 -22.47568007 -325 -24 C-325 -24.66 -325 -25.32 -325 -26 C-321.23782229 -26.86214763 -317.69165488 -27.15969356 -313.8359375 -27.24609375 C-312.64137939 -27.27751465 -311.44682129 -27.30893555 -310.21606445 -27.34130859 C-308.94851318 -27.37305176 -307.68096191 -27.40479492 -306.375 -27.4375 C-295.65766874 -27.76060911 -285.10683818 -28.37793359 -274.47070312 -29.70410156 C-271.75915745 -30.02884399 -269.04501476 -30.30953611 -266.328125 -30.5859375 C-248.80918646 -32.41398855 -231.51187716 -35.29111135 -214.16308594 -38.28320312 C-204.78306981 -39.90083594 -195.39422707 -41.46713837 -186 -43 C-185.14100098 -43.14034668 -184.28200195 -43.28069336 -183.39697266 -43.42529297 C-116.45061077 -54.2452932 -54.61523171 -41.064084 0 0 Z " fill="#211F20" transform="translate(574,1489)"/>
<path d="M0 0 C3.24702557 3.16796756 6.23013237 6.39567612 9.0625 9.9375 C16.66587897 19.31204878 24.32487455 28.57339965 32.9921875 36.9921875 C34.92018418 38.92018418 36.68067034 40.91631831 38.4375 43 C41.78772997 46.89704912 45.4882112 50.26523394 49.34375 53.65625 C52.02189903 56.01932267 54.63391465 58.4435795 57.25 60.875 C61.8851451 65.09885758 66.70585854 68.98469805 71.66040039 72.81933594 C76.31622235 76.4311405 80.83021296 80.18320886 85.30932617 84.01098633 C88.72980968 86.93259485 92.18986915 89.79545594 95.6875 92.625 C100.13903808 96.24834495 104.42382455 100.01963872 108.66796875 103.8828125 C110.75823889 105.78051169 112.86986115 107.64733415 115 109.5 C115.64453125 110.06589844 116.2890625 110.63179687 116.953125 111.21484375 C118.39088748 112.46877019 119.83987062 113.70989064 121.296875 114.94140625 C156.94893522 145.76794877 175.43886774 192.18711852 185.5480957 237.0625 C185.99726254 238.98826336 186.4946304 240.90257441 186.9921875 242.81640625 C190.43354247 256.50040345 192.08740056 270.76144218 193.75 284.75 C193.87753662 285.79526855 194.00507324 286.84053711 194.13647461 287.91748047 C194.93653799 294.97039011 195.14209338 301.90480378 195 309 C189.20455224 307.31527681 183.99132542 304.64765816 178.625 301.9375 C177.64619873 301.44435303 176.66739746 300.95120605 175.65893555 300.44311523 C143.7342724 284.24694641 113.35774604 264.29402142 87 240 C86.40960937 239.46004395 85.81921875 238.92008789 85.2109375 238.36376953 C71.48095126 225.79763587 71.48095126 225.79763587 66.58984375 219.8984375 C64.70245059 217.6446953 62.69359761 215.52364528 60.6875 213.375 C55.22646234 207.30410027 50.57397577 200.7448772 46 194 C45.54834473 193.33548828 45.09668945 192.67097656 44.63134766 191.98632812 C25.79059399 164.06529535 12.82372259 133.01477548 6 100 C5.60554688 98.19982422 5.60554688 98.19982422 5.203125 96.36328125 C3.66205416 89.09037042 2.45378835 81.79149383 1.375 74.4375 C1.25181396 73.6115332 1.12862793 72.78556641 1.00170898 71.93457031 C-0.97158261 57.96470223 -1.15991671 44.07318848 -1.13037109 29.99243164 C-1.12495556 26.91222334 -1.13037536 23.83215732 -1.13671875 20.75195312 C-1.13605883 18.78124968 -1.13477947 16.81054632 -1.1328125 14.83984375 C-1.13483673 13.92524887 -1.13686096 13.01065399 -1.13894653 12.06834412 C-1.12365056 7.91763786 -1.05551041 4.04647261 0 0 Z " fill="#211F20" transform="translate(473,643)"/>
<path d="M0 0 C0.33 0 0.66 0 1 0 C7.68805553 60.16285411 5.07732583 129.94425309 -28.58984375 182.734375 C-30.09891183 185.15891651 -31.38387505 187.64710267 -32.6875 190.1875 C-36.72224428 197.64757406 -41.87091609 204.27176704 -47 211 C-47.44504883 211.59216309 -47.89009766 212.18432617 -48.34863281 212.79443359 C-63.67012735 233.16053305 -81.97893184 251.2854579 -102 267 C-103.45019531 268.14275391 -103.45019531 268.14275391 -104.9296875 269.30859375 C-117.49788775 279.10301414 -130.55545412 288.13424997 -143.875 296.875 C-144.81327637 297.49334717 -145.75155273 298.11169434 -146.71826172 298.7487793 C-152.18650303 302.30876706 -157.73260929 305.58590379 -163.49658203 308.64501953 C-165.25987803 309.59940736 -166.99092872 310.61459486 -168.69482422 311.67138672 C-171 313 -171 313 -173 313 C-171.41204025 256.69843525 -167.15210253 194.22815379 -135 146 C-134.62649414 145.43716309 -134.25298828 144.87432617 -133.86816406 144.29443359 C-128.43103718 136.17496059 -122.4264497 128.90960665 -115.6875 121.83984375 C-113.61654751 119.65149716 -111.65753092 117.45239506 -109.75 115.125 C-107.2609875 112.17241784 -104.47608735 109.77452492 -101.53515625 107.28125 C-98.05666263 104.15114172 -94.79014928 100.82606089 -91.5 97.5 C-87.09128139 93.04765737 -82.67839295 88.71126867 -77.88671875 84.66796875 C-74.66098843 81.81623615 -71.68990036 78.70854632 -68.6875 75.625 C-66.67709336 73.66134701 -64.66910725 71.8449659 -62.53515625 70.02734375 C-56.83855732 65.08708425 -51.56495196 59.71412786 -46.24536133 54.37573242 C-44.44137915 52.56639067 -42.63211335 50.76245681 -40.82226562 48.95898438 C-35.00359791 43.14402116 -29.28166606 37.31517668 -24 31 C-23.15695312 30.01515625 -22.31390625 29.0303125 -21.4453125 28.015625 C-14.59834358 19.85459134 -8.12504679 11.47248783 -2 2.75 C-1.34 1.8425 -0.68 0.935 0 0 Z " fill="#211F20" transform="translate(953,527)"/>
<path d="M0 0 C2.17955903 0.65162577 4.36632991 1.2681057 6.55859375 1.87548828 C14.08049272 3.97965238 21.31510638 6.37558389 28.54003906 9.35620117 C35.98339766 12.42449303 43.56892805 15.04490374 51.18359375 17.65283203 C52.07191895 17.95979004 52.96024414 18.26674805 53.87548828 18.58300781 C80.57961899 27.78705905 107.38807418 34.67900329 135.18359375 39.65283203 C135.18359375 40.31283203 135.18359375 40.97283203 135.18359375 41.65283203 C132.98614906 43.28799834 130.79400334 44.79533665 128.49609375 46.27783203 C127.81345459 46.72441162 127.13081543 47.17099121 126.42749023 47.63110352 C76.65266322 80.03818474 22.43066048 101.96943254 -37.69995117 101.78320312 C-39.74861069 101.77784588 -41.7970502 101.78318622 -43.84570312 101.78955078 C-56.94855212 101.79829446 -69.80507187 100.87317455 -82.75390625 98.84033203 C-83.88852295 98.6629248 -85.02313965 98.48551758 -86.19213867 98.30273438 C-94.61183111 96.9405039 -102.64143004 95.09935776 -110.81640625 92.65283203 C-112.44956589 92.20273798 -114.08376099 91.75639104 -115.71875 91.31298828 C-133.09305913 86.56053292 -149.65426697 80.63093382 -165.81640625 72.65283203 C-166.61788086 72.26160156 -167.41935547 71.87037109 -168.24511719 71.46728516 C-187.29579091 62.16063311 -187.29579091 62.16063311 -195.81640625 56.65283203 C-196.67105469 56.12818359 -197.52570312 55.60353516 -198.40625 55.06298828 C-199.24285156 54.53576172 -200.07945312 54.00853516 -200.94140625 53.46533203 C-201.68648437 52.99740234 -202.4315625 52.52947266 -203.19921875 52.04736328 C-203.73289062 51.58716797 -204.2665625 51.12697266 -204.81640625 50.65283203 C-204.81640625 49.66283203 -204.81640625 48.67283203 -204.81640625 47.65283203 C-203.91664063 47.15396484 -203.016875 46.65509766 -202.08984375 46.14111328 C-200.78999913 45.41650805 -199.49055795 44.69117887 -198.19140625 43.96533203 C-197.47992432 43.56813965 -196.76844238 43.17094727 -196.03540039 42.76171875 C-191.87093186 40.42079006 -187.74888349 38.02489102 -183.6640625 35.54736328 C-155.06233749 18.22500797 -124.48850165 5.04377116 -91.81640625 -2.34716797 C-90.63820313 -2.62302734 -89.46 -2.89888672 -88.24609375 -3.18310547 C-84.7787675 -3.96655055 -81.30755807 -4.67822845 -77.81640625 -5.34716797 C-76.20378906 -5.65847656 -76.20378906 -5.65847656 -74.55859375 -5.97607422 C-49.43294091 -10.0682933 -24.19170098 -7.32542817 0 0 Z " fill="#211F20" transform="translate(1073.81640625,1427.34716796875)"/>
<path d="M0 0 C3.47892125 4.22440438 6.61635154 8.64402688 9.75 13.125 C10.82633114 14.65529393 11.90315386 16.18524221 12.98046875 17.71484375 C13.50044434 18.45331543 14.02041992 19.19178711 14.55615234 19.95263672 C24.43336376 33.95843566 34.8197784 47.06466013 46.60058594 59.5078125 C49.49238393 62.59132076 52.24596546 65.79391434 55 69 C58.87049693 73.48472796 62.75205947 77.86384738 67 82 C67.78375 82.804375 68.5675 83.60875 69.375 84.4375 C71.33368966 86.34955419 73.27249391 88.07605524 75.375 89.8125 C78.66807356 92.59347572 81.40657568 95.66039206 84.19140625 98.94140625 C86.00285098 101.00324507 87.90381369 102.90376712 89.875 104.8125 C123.10366288 137.72104089 139.97417453 185.76371263 140.32122803 231.93089294 C140.32823832 234.74569707 140.32210885 237.56020634 140.3125 240.375 C140.31233887 241.33901733 140.31217773 242.30303467 140.31201172 243.29626465 C140.2944657 258.3939904 139.49609817 273.08284187 137 288 C136.34 288 135.68 288 135 288 C135 287.34 135 286.68 135 286 C134.44570313 285.74476563 133.89140625 285.48953125 133.3203125 285.2265625 C124.86767317 280.75833228 117.38296436 274.02504665 110 268 C108.67162109 266.9171875 108.67162109 266.9171875 107.31640625 265.8125 C105.46358316 264.29870411 103.61336389 262.78171624 101.765625 261.26171875 C99.9950121 259.81371752 98.21456811 258.37760473 96.421875 256.95703125 C78.21957072 242.43333637 60.08499094 225.5596451 46 207 C45.04974579 205.77843838 44.09920434 204.55710017 43.1484375 203.3359375 C20.0344415 173.3722566 5.82588757 140.16733289 -1 103 C-1.18111328 102.01870117 -1.36222656 101.03740234 -1.54882812 100.02636719 C-1.72349609 99.03540039 -1.89816406 98.04443359 -2.078125 97.0234375 C-2.2318457 96.15380371 -2.38556641 95.28416992 -2.54394531 94.38818359 C-3.73724997 85.52272215 -4.15753611 76.68036596 -4.16796875 67.7421875 C-4.17129715 66.71425079 -4.17462555 65.68631409 -4.17805481 64.62722778 C-4.18307807 62.46763551 -4.18546457 60.30803561 -4.18530273 58.1484375 C-4.18748086 54.90351064 -4.20566376 51.65892914 -4.22460938 48.4140625 C-4.2688686 31.97646883 -2.98230549 16.18059363 0 0 Z " fill="#211F20" transform="translate(562,510)"/>
<path d="M0 0 C5.86568507 3.36790644 11.6947059 6.76350948 17.375 10.4375 C23.77778663 14.5418504 30.34540038 18.32353405 37 22 C37.68529785 22.38027344 38.3705957 22.76054688 39.07666016 23.15234375 C54.47566808 31.63971202 70.49457063 38.66491357 86.734375 45.37890625 C133.25704548 64.68785096 160.82362221 100.75456145 179.87109375 146.42578125 C186.16343861 161.94390057 190.97560543 177.9996034 195.4375 194.125 C195.82627319 195.52057129 195.82627319 195.52057129 196.22290039 196.94433594 C196.4574292 197.8109082 196.69195801 198.67748047 196.93359375 199.5703125 C197.2438147 200.71137451 197.2438147 200.71137451 197.56030273 201.87548828 C198 204 198 204 198 208 C196.4983547 207.73844293 194.9987567 207.46513114 193.5 207.1875 C192.6646875 207.03667969 191.829375 206.88585938 190.96875 206.73046875 C187.17349213 205.79663556 183.63187309 204.43177239 180 203 C179.28215332 202.72019287 178.56430664 202.44038574 177.82470703 202.15209961 C126.54324353 182.06043978 77.10960279 157.58422891 46 110 C45.49033691 109.23333008 44.98067383 108.46666016 44.45556641 107.67675781 C29.46243429 85.04402225 17.52864373 60.77418034 9 35 C8.76337646 34.30406738 8.52675293 33.60813477 8.28295898 32.89111328 C6.30554524 27.05377243 4.52283097 21.17070128 2.8125 15.25 C2.40354492 13.87134766 2.40354492 13.87134766 1.98632812 12.46484375 C1.72916016 11.57410156 1.47199219 10.68335938 1.20703125 9.765625 C0.9747583 8.96930664 0.74248535 8.17298828 0.50317383 7.35253906 C-0.03452784 4.83856852 -0.08780995 2.56325478 0 0 Z " fill="#211F20" transform="translate(434,1219)"/>
<path d="M0 0 C1 2 1 2 -0.00390625 5.1328125 C-0.51561043 6.46657097 -1.03577894 7.79710025 -1.5625 9.125 C-2.12942657 10.58573567 -2.69581839 12.04667897 -3.26171875 13.5078125 C-3.69943604 14.62978027 -3.69943604 14.62978027 -4.14599609 15.77441406 C-4.94574527 17.85860887 -5.70936663 19.95133327 -6.45703125 22.0546875 C-15.82153872 48.26882779 -30.59635494 72.63708245 -47 95 C-47.59683594 95.8146875 -48.19367188 96.629375 -48.80859375 97.46875 C-53.76738269 104.03290226 -59.33243056 110.0489646 -65 116 C-65.55671387 116.58539551 -66.11342773 117.17079102 -66.68701172 117.77392578 C-73.95875145 125.36686621 -81.21252868 132.15751907 -90 138 C-91.15234445 138.80543095 -92.30330894 139.61283867 -93.453125 140.421875 C-101.57909814 146.07374201 -109.91030497 150.76163107 -118.85498047 154.98486328 C-121.0993608 156.04702279 -123.33314198 157.12952346 -125.56640625 158.21484375 C-141.02400692 165.68513704 -156.71694692 172.52515256 -173 178 C-173.8235498 178.27730957 -174.64709961 178.55461914 -175.49560547 178.84033203 C-180.83491662 180.63416417 -186.17641165 182.42136854 -191.52978516 184.17285156 C-193.19357484 184.72996951 -194.84964618 185.31062333 -196.49755859 185.91308594 C-197.28598145 186.19700195 -198.0744043 186.48091797 -198.88671875 186.7734375 C-199.58369873 187.03302246 -200.28067871 187.29260742 -200.9987793 187.56005859 C-203.3277151 188.07204375 -204.75871502 187.74154855 -207 187 C-206.71390693 185.60301364 -206.42083095 184.2074567 -206.125 182.8125 C-205.96257813 182.03519531 -205.80015625 181.25789063 -205.6328125 180.45703125 C-205 178 -205 178 -204.0625 175.6640625 C-203.00993432 173.02490884 -202.21592989 170.36918096 -201.45361328 167.6340332 C-196.83718531 151.10644193 -191.06163716 135.1612651 -183 120 C-182.06021514 118.04276212 -181.12268681 116.08443903 -180.1875 114.125 C-172.23835821 98.31083432 -161.99563175 83.09938128 -149 71 C-148.195625 70.175 -147.39125 69.35 -146.5625 68.5 C-128.10726786 50.49489547 -105.07663051 40.70605367 -80.44921875 33.9921875 C-54.73931254 26.59658594 -29.35194296 15.83913325 -5.89672852 3.01806641 C-3.94937512 1.97282717 -1.9812602 0.97920875 0 0 Z " fill="#211F20" transform="translate(1089,1203)"/>
<path d="M0 0 C0.66 0 1.32 0 2 0 C8.84001297 19.10160303 13.93558297 38.81039176 17.57714844 58.76147461 C17.86967445 60.31007218 18.18152438 61.8550983 18.50878906 63.39672852 C26.28853339 100.0834913 23.99240268 136.98116315 6 170 C5.67241699 170.60827637 5.34483398 171.21655273 5.00732422 171.84326172 C0.23538905 180.65243949 -5.16152616 188.87152405 -11 197 C-11.97066406 198.36898438 -11.97066406 198.36898438 -12.9609375 199.765625 C-21.53291273 211.73140267 -30.79209617 223.0814764 -40.43994141 234.18847656 C-42.09460913 236.10985911 -43.72681367 238.04871871 -45.35546875 239.9921875 C-46.17640015 240.96671875 -46.17640015 240.96671875 -47.01391602 241.9609375 C-48.06954832 243.21509074 -49.12098615 244.47278929 -50.16772461 245.734375 C-51.40206463 247.1938092 -52.69595156 248.60250183 -54 250 C-54.66 250 -55.32 250 -56 250 C-66.94474458 217.78309614 -75.16720379 185.17882473 -75.1875 151 C-75.19974609 149.91460938 -75.21199219 148.82921875 -75.22460938 147.7109375 C-75.23791036 140.28011976 -74.44935538 133.28276541 -73 126 C-72.80897705 125.01966797 -72.6179541 124.03933594 -72.42114258 123.02929688 C-67.71578036 100.1608579 -52.86060909 80.87324896 -39.17089844 62.57958984 C-36.91185569 59.53204886 -34.75389576 56.41482123 -32.59375 53.296875 C-31.54098598 51.77965627 -30.47862214 50.26904868 -29.40625 48.765625 C-23.66265627 40.69208287 -18.32858863 32.3507289 -13 24 C-12.57211182 23.33838867 -12.14422363 22.67677734 -11.70336914 21.99511719 C-8.70691275 17.30541231 -6.12709046 12.49954021 -3.6875 7.5 C-3.32849609 6.77296875 -2.96949219 6.0459375 -2.59960938 5.296875 C-1.72932329 3.5330952 -0.86410933 1.76681412 0 0 Z " fill="#211F20" transform="translate(870,836)"/>
<path d="M0 0 C0.495 0.99 0.495 0.99 1 2 C-0.0270863 4.36260692 -1.11688072 6.59838732 -2.3125 8.875 C-3.05912717 10.327851 -3.80519486 11.78098961 -4.55078125 13.234375 C-5.14947021 14.39356445 -5.14947021 14.39356445 -5.76025391 15.57617188 C-7.02315029 18.04526115 -8.25599053 20.52727773 -9.48046875 23.015625 C-17.14284878 38.57894914 -25.7175066 53.3534428 -35 68 C-35.61875 67.34 -36.2375 66.68 -36.875 66 C-38.75637427 63.7715451 -38.75637427 63.7715451 -41 64 C-39.57956285 58.51271601 -36.93968658 54.92225853 -33.5 50.5625 C-22.43680968 36.14847923 -13.01209674 20.74044678 -3.4453125 5.30566406 C-2.32531403 3.51896381 -1.16970665 1.75455998 0 0 Z " fill="#F4F4F4" transform="translate(1104,774)"/>
<path d="M0 0 C0.66 0.33 1.32 0.66 2 1 C-5.23713219 6.48380635 -12.5281349 11.83902102 -20 17 C-21.12410654 17.78717721 -22.24777945 18.57497391 -23.37109375 19.36328125 C-24.53899151 20.17978905 -25.70695961 20.99619626 -26.875 21.8125 C-27.94492188 22.56144531 -29.01484375 23.31039063 -30.1171875 24.08203125 C-32.380697 25.5879705 -34.53455224 26.8744695 -37 28 C-37 27.01 -37 26.02 -37 25 C-37.3062434 23.66018514 -37.63451555 22.32488113 -38 21 C-37.05382813 20.53851562 -36.10765625 20.07703125 -35.1328125 19.6015625 C-27.40731827 15.80302985 -19.78097902 11.85971486 -12.25 7.6875 C-11.4883252 7.26742676 -10.72665039 6.84735352 -9.94189453 6.41455078 C-6.45177926 4.46550503 -3.11246228 2.53092327 0 0 Z M-36 22 C-35 24 -35 24 -35 24 Z " fill="#EBEBEB" transform="translate(1359,1243)"/>
<path d="M0 0 C0.33 0 0.66 0 1 0 C1.33 16.17 1.66 32.34 2 49 C1.01 49 0.02 49 -1 49 C-1.02483991 43.30745761 -1.04292602 37.61494724 -1.05493164 31.92236328 C-1.05994013 29.98843841 -1.06674882 28.05451729 -1.07543945 26.12060547 C-1.08765831 23.3303942 -1.09326329 20.54023328 -1.09765625 17.75 C-1.10281754 16.89446533 -1.10797882 16.03893066 -1.11329651 15.1574707 C-1.1137702 10.01328727 -0.74169581 5.09178021 0 0 Z " fill="#313031" transform="translate(927,898)"/>
<path d="M0 0 C4.54380932 2.90088886 8.617039 6.09695269 12.6875 9.625 C15.71179647 12.23392771 18.66935494 14.77956996 22 17 C21.67 18.65 21.34 20.3 21 22 C15.96956668 17.77883845 11.20760667 13.39019121 6.5625 8.75 C5.92634766 8.12609375 5.29019531 7.5021875 4.63476562 6.859375 C4.03470703 6.26125 3.43464844 5.663125 2.81640625 5.046875 C2.27443604 4.50901367 1.73246582 3.97115234 1.17407227 3.41699219 C0 2 0 2 0 0 Z " fill="#DAD9DA" transform="translate(138,1203)"/>
<path d="M0 0 C0.33 0 0.66 0 1 0 C1.33 4.62 1.66 9.24 2 14 C1.34 14 0.68 14 0 14 C-0.33 11.36 -0.66 8.72 -1 6 C-1.66 7.32 -2.32 8.64 -3 10 C-2.34 10.33 -1.68 10.66 -1 11 C-2.98 13.97 -2.98 13.97 -5 17 C-5.99 16.67 -6.98 16.34 -8 16 C-10.14255793 16.38932856 -10.14255793 16.38932856 -12 17 C-11.63648438 16.52691406 -11.27296875 16.05382812 -10.8984375 15.56640625 C-7.46863488 11.05489665 -4.26640099 6.45330548 -1.19921875 1.6875 C-0.80347656 1.130625 -0.40773438 0.57375 0 0 Z " fill="#2C2A2B" transform="translate(953,527)"/>
<path d="M0 0 C2.36253009 2.36253009 3.037848 4.31227271 4.1875 7.4375 C4.55230469 8.40558594 4.91710938 9.37367188 5.29296875 10.37109375 C6 13 6 13 5 16 C3.68 16 2.36 16 1 16 C0.67 17.32 0.34 18.64 0 20 C-2 18 -2 18 -2.01171875 15.8984375 C-1.90472656 15.06570313 -1.79773437 14.23296875 -1.6875 13.375 C-1.57921875 12.488125 -1.4709375 11.60125 -1.359375 10.6875 C-1.18148438 9.3571875 -1.18148438 9.3571875 -1 8 C-0.81223681 6.45836537 -0.62470671 4.91670231 -0.4375 3.375 C-0.293125 2.26125 -0.14875 1.1475 0 0 Z " fill="#252324" transform="translate(1152,558)"/>
<path d="M0 0 C1.96244652 3.92489304 2.28432814 5.62138586 2.4140625 9.859375 C2.45273437 10.97441406 2.49140625 12.08945312 2.53125 13.23828125 C2.5621875 14.39714844 2.593125 15.55601562 2.625 16.75 C2.66367187 17.92433594 2.70234375 19.09867187 2.7421875 20.30859375 C2.8363982 23.20557268 2.92201602 26.10254626 3 29 C2.67 29 2.34 29 2 29 C1.67 27.35 1.34 25.7 1 24 C0.67 25.98 0.34 27.96 0 30 C-0.33 30 -0.66 30 -1 30 C-0.67 20.1 -0.34 10.2 0 0 Z " fill="#CFCFCF" transform="translate(809,249)"/>
<path d="M0 0 C3.81529593 3.60558995 6.82453672 7.33870526 9.75 11.6875 C10.14832031 12.26822266 10.54664063 12.84894531 10.95703125 13.44726562 C12.41721132 15.5880381 13.83969072 17.67938143 15 20 C14.01 20.99 13.02 21.98 12 23 C9.99304709 19.54565686 7.99563221 16.0858937 6 12.625 C5.42765625 11.64015625 4.8553125 10.6553125 4.265625 9.640625 C3.72421875 8.69960938 3.1828125 7.75859375 2.625 6.7890625 C2.12226563 5.91975098 1.61953125 5.05043945 1.1015625 4.15478516 C0 2 0 2 0 0 Z " fill="#ECEBEB" transform="translate(390,963)"/>
<path d="M0 0 C0.33 0.66 0.66 1.32 1 2 C-0.19761357 4.69093419 -1.44982258 7.26954233 -2.8125 9.875 C-3.18181641 10.59558594 -3.55113281 11.31617188 -3.93164062 12.05859375 C-4.6250479 13.41055121 -5.32172711 14.76083905 -6.02270508 16.10888672 C-6.70997452 17.43878656 -7.35203364 18.79254584 -7.9597168 20.16064453 C-9.42803537 22.75682198 -11.23506949 23.12686405 -14 24 C-12.70208638 20.51825247 -11.18014318 17.48384093 -9.1796875 14.35546875 C-8.64472656 13.51435547 -8.10976562 12.67324219 -7.55859375 11.80664062 C-6.72521484 10.51016602 -6.72521484 10.51016602 -5.875 9.1875 C-5.31167969 8.30384766 -4.74835938 7.42019531 -4.16796875 6.50976562 C-2.78236826 4.33742587 -1.39295366 2.16762917 0 0 Z " fill="#EEEEEE" transform="translate(1104,774)"/>
<path d="M0 0 C0.33 0.66 0.66 1.32 1 2 C-0.3125 4.625 -0.3125 4.625 -2 7 C-2.66 7 -3.32 7 -4 7 C-4.33 7.99 -4.66 8.98 -5 10 C-5.66 10 -6.32 10 -7 10 C-7.33 10.99 -7.66 11.98 -8 13 C-9.48526177 14.29153197 -10.97509824 15.57960193 -12.515625 16.8046875 C-14.07371518 18.01562169 -14.07371518 18.01562169 -15.625 19.625 C-17.28429341 21.28429341 -19.10185012 22.62547767 -21 24 C-21.66 23.67 -22.32 23.34 -23 23 C-22.55197021 22.5875 -22.10394043 22.175 -21.64233398 21.75 C-19.57009576 19.83757518 -17.50380068 17.91883781 -15.4375 16 C-14.73302734 15.35160156 -14.02855469 14.70320312 -13.30273438 14.03515625 C-8.54544317 9.60671006 -4.18193609 4.97499061 0 0 Z " fill="#E9E8E9" transform="translate(1049,850)"/>
<path d="M0 0 C0.66 0.33 1.32 0.66 2 1 C-4.86541113 6.2274704 -11.74095119 11.32561251 -19 16 C-19.03125 13.828125 -19.03125 13.828125 -18 11 C-15.3726064 8.88881196 -12.4599635 7.34713701 -9.5 5.75 C-7.92665671 4.87055448 -6.35371816 3.99038433 -4.78125 3.109375 C-4.08064453 2.72749023 -3.38003906 2.34560547 -2.65820312 1.95214844 C-1.0209442 1.10797754 -1.0209442 1.10797754 0 0 Z " fill="#EBEAEA" transform="translate(1359,1243)"/>
<path d="M0 0 C3.02952396 1.51476198 3.37093771 3.85368016 4.625 6.9375 C5.07101563 8.01902344 5.51703125 9.10054687 5.9765625 10.21484375 C7 13 7 13 7 15 C4.69 14.67 2.38 14.34 0 14 C0 9.38 0 4.76 0 0 Z " fill="#2E2D2D" transform="translate(0,1005)"/>
<path d="M0 0 C0.66 0.66 1.32 1.32 2 2 C1.01 2.66 0.02 3.32 -1 4 C-1.33 4.99 -1.66 5.98 -2 7 C-5.6441774 9.4294516 -7.71241272 9.16179575 -12 9 C-8.11327187 5.81994972 -4.10047867 2.89445553 0 0 Z " fill="#292828" transform="translate(830,1438)"/>
<path d="M0 0 C0 4.13781054 -1.71509607 5.20919996 -4.5 8.1875 C-5.3353125 9.08855469 -6.170625 9.98960938 -7.03125 10.91796875 C-7.6809375 11.60503906 -8.330625 12.29210938 -9 13 C-9 8.86218946 -7.28490393 7.79080004 -4.5 4.8125 C-3.6646875 3.91144531 -2.829375 3.01039062 -1.96875 2.08203125 C-0.99421875 1.05142578 -0.99421875 1.05142578 0 0 Z M-15 17 C-14.34 17.66 -13.68 18.32 -13 19 C-15.97 21.475 -15.97 21.475 -19 24 C-19.66 23.67 -20.32 23.34 -21 23 C-19.02 21.02 -17.04 19.04 -15 17 Z " fill="#E6E6E6" transform="translate(1393,1300)"/>
<path d="M0 0 C1.72082924 0 3.34228586 -0.5722028 5 -1 C4.67 0.32 4.34 1.64 4 3 C-1.94 3.495 -1.94 3.495 -8 4 C-5.53495456 -0.93009087 -4.95276228 -1.43789873 0 0 Z " fill="#2D2C2C" transform="translate(1233,1291)"/>
<path d="M0 0 C0.33 0 0.66 0 1 0 C1 6.6 1 13.2 1 20 C-0.98 20.99 -0.98 20.99 -3 22 C-2.01 14.74 -1.02 7.48 0 0 Z " fill="#E0E0E0" transform="translate(1508,1079)"/>
<path d="M0 0 C0.33 0 0.66 0 1 0 C1 3.96 1 7.92 1 12 C-2.77545388 10.90931332 -5.47043472 10.0916909 -8 7 C-6.02 7 -4.04 7 -2 7 C-1.855625 6.401875 -1.71125 5.80375 -1.5625 5.1875 C-1.1127561 3.43849596 -0.57107659 1.71322977 0 0 Z " fill="#282728" transform="translate(667,940)"/>
<path d="M0 0 C3.35595828 0.59927826 5.37801226 1.84622436 8 4 C7.67 5.65 7.34 7.3 7 9 C5.82460004 8.07347299 4.65989423 7.13336613 3.5 6.1875 C2.52546875 5.40439453 2.52546875 5.40439453 1.53125 4.60546875 C0 3 0 3 0 0 Z " fill="#EAEAEA" transform="translate(152,1216)"/>
<path d="M0 0 C0.33 0.99 0.66 1.98 1 3 C-0.75 5.0625 -0.75 5.0625 -3 7 C-5.25 6.75 -5.25 6.75 -7 6 C-7 6.99 -7 7.98 -7 9 C-7.99 8.67 -8.98 8.34 -10 8 C-10 7.34 -10 6.68 -10 6 C-7.8125 4.4921875 -7.8125 4.4921875 -5 2.875 C-4.071875 2.33617187 -3.14375 1.79734375 -2.1875 1.2421875 C-1.465625 0.83226562 -0.74375 0.42234375 0 0 Z " fill="#292728" transform="translate(874,1410)"/>
<path d="M0 0 C0.66 0.33 1.32 0.66 2 1 C2 1.66 2 2.32 2 3 C2.99 3 3.98 3 5 3 C5 3.66 5 4.32 5 5 C-0.05002222 6.03590199 -4.87416389 6.10251672 -10 6 C-6.78360346 4.25434889 -4.67986596 3.795563 -1 4 C-0.67 2.68 -0.34 1.36 0 0 Z " fill="#2C2B2C" transform="translate(1234,1402)"/>
<path d="M0 0 C0.66 0.99 1.32 1.98 2 3 C0.02 5.97 0.02 5.97 -2 9 C-4.475 8.01 -4.475 8.01 -7 7 C-7 6.34 -7 5.68 -7 5 C-6.360625 4.87625 -5.72125 4.7525 -5.0625 4.625 C-4.381875 4.41875 -3.70125 4.2125 -3 4 C-2.67 3.34 -2.34 2.68 -2 2 C-1.34 2.33 -0.68 2.66 0 3 C0 2.01 0 1.02 0 0 Z " fill="#272627" transform="translate(1441,1231)"/>
<path d="M0 0 C0.66 0 1.32 0 2 0 C2.19627391 1.58226965 2.38165538 3.16589271 2.5625 4.75 C2.66691406 5.63171875 2.77132812 6.5134375 2.87890625 7.421875 C2.99456676 9.88432451 2.73638695 11.66538064 2 14 C1.34 14 0.68 14 0 14 C0 9.38 0 4.76 0 0 Z " fill="#353334" transform="translate(831,0)"/>
<path d="M0 0 C2.7710688 2.34591852 3.52059284 4.14776201 4.1875 7.6875 C4.34605469 8.49574219 4.50460937 9.30398438 4.66796875 10.13671875 C4.77753906 10.75160156 4.88710938 11.36648438 5 12 C4.01 12.33 3.02 12.66 2 13 C1.34 12.34 0.68 11.68 0 11 C0.31165441 8.99650739 0.64763503 6.99673484 1 5 C0.63141012 2.23135047 0.63141012 2.23135047 0 0 Z " fill="#272626" transform="translate(809,1798)"/>
<path d="M0 0 C0.33 0 0.66 0 1 0 C1 1.98 1 3.96 1 6 C1.639375 6.12375 2.27875 6.2475 2.9375 6.375 C3.618125 6.58125 4.29875 6.7875 5 7 C5.33 7.66 5.66 8.32 6 9 C3.36 9.33 0.72 9.66 -2 10 C-1.34 6.7 -0.68 3.4 0 0 Z " fill="#323132" transform="translate(884,1381)"/>
<path d="M0 0 C0.33 0 0.66 0 1 0 C1 1.65 1 3.3 1 5 C1.66 5.33 2.32 5.66 3 6 C2.979375 6.78375 2.95875 7.5675 2.9375 8.375 C2.81315937 10.98114961 2.81315937 10.98114961 4 13 C3.0625 15.625 3.0625 15.625 2 18 C1.67 18 1.34 18 1 18 C-0.0712828 11.97403427 -0.09945415 6.11090483 0 0 Z " fill="#2C2A2B" transform="translate(288,843)"/>
<path d="M0 0 C4.59306496 1.4859916 7.43569245 3.85014682 11 7 C10.01 7.66 9.02 8.32 8 9 C6.66368764 7.6905332 5.33102075 6.37734515 4 5.0625 C3.2575 4.33160156 2.515 3.60070313 1.75 2.84765625 C0 1 0 1 0 0 Z " fill="#2E2D2E" transform="translate(249,1464)"/>
<path d="M0 0 C5.75 0.875 5.75 0.875 8 2 C8.33 1.34 8.66 0.68 9 0 C9.66 0.33 10.32 0.66 11 1 C11 1.99 11 2.98 11 4 C11.99 4 12.98 4 14 4 C14 4.66 14 5.32 14 6 C12.41531323 5.54636829 10.83230076 5.08688548 9.25 4.625 C8.36828125 4.36976562 7.4865625 4.11453125 6.578125 3.8515625 C4.23919428 3.0790066 2.16557438 2.16374324 0 1 C0 0.67 0 0.34 0 0 Z " fill="#2B2A2B" transform="translate(613,1420)"/>
<path d="M0 0 C0.66 0 1.32 0 2 0 C2.99 2.64 3.98 5.28 5 8 C3.68 8.99 2.36 9.98 1 11 C-0.28317892 7.15046324 -0.06643637 4.05261865 0 0 Z " fill="#2C2A2B" transform="translate(297,897)"/>
<path d="M0 0 C2.78637633 4.1795645 1.79562512 6.14668677 1 11 C-2 9 -2 9 -2.51171875 7.0546875 C-2.67447917 5.03645833 -2.83723958 3.01822917 -3 1 C-2.67 1.99 -2.34 2.98 -2 4 C-1.34 4 -0.68 4 0 4 C0 2.68 0 1.36 0 0 Z " fill="#2A2829" transform="translate(833,10)"/>
<path d="M0 0 C2.5722047 1.28610235 3.00974907 2.33393981 4 5 C3.625 7.25 3.625 7.25 3 9 C2.01 9 1.02 9 0 9 C-1.125 3.375 -1.125 3.375 0 0 Z " fill="#292829" transform="translate(289,729)"/>
<path d="M0 0 C0.99 0 1.98 0 3 0 C3.66 0.66 4.32 1.32 5 2 C3.3125 4.0625 3.3125 4.0625 1 6 C-1.75 5.75 -1.75 5.75 -4 5 C-2.1875 2.5 -2.1875 2.5 0 0 Z " fill="#2F2E2F" transform="translate(907,581)"/>
<path d="M0 0 C-0.33 0.99 -0.66 1.98 -1 3 C-2.32 3 -3.64 3 -5 3 C-5.33 4.32 -5.66 5.64 -6 7 C-8 5 -8 5 -8.125 2.375 C-8.08375 1.59125 -8.0425 0.8075 -8 0 C-4.71303767 -0.79953138 -3.28976808 -1.09658936 0 0 Z " fill="#2F2E2E" transform="translate(1158,571)"/>
<path d="M0 0 C1 4 1 4 1 6 C-1.3125 8.625 -1.3125 8.625 -4 11 C-4.99 11 -5.98 11 -7 11 C-4.69 7.37 -2.38 3.74 0 0 Z " fill="#2A2829" transform="translate(849,872)"/>
<path d="M0 0 C0.66 0.99 1.32 1.98 2 3 C0.47793991 5.62901288 -0.84365964 7.84365964 -3 10 C-3.99 9.67 -4.98 9.34 -6 9 C-4.02 6.03 -2.04 3.06 0 0 Z M2 0 C2.66 0.66 3.32 1.32 4 2 C3.34 2 2.68 2 2 2 C2 1.34 2 0.68 2 0 Z " fill="#2E2C2D" transform="translate(1125,636)"/>
<path d="M0 0 C0.66 0.33 1.32 0.66 2 1 C-1.96 3.97 -5.92 6.94 -10 10 C-10.33 9.01 -10.66 8.02 -11 7 C-9.21475351 5.80286983 -7.4215972 4.61752721 -5.625 3.4375 C-4.62726563 2.77621094 -3.62953125 2.11492187 -2.6015625 1.43359375 C-1.74304687 0.96050781 -0.88453125 0.48742188 0 0 Z " fill="#C9C8C8" transform="translate(1359,1243)"/>
<path d="M0 0 C5.16483516 7.74725275 5.16483516 7.74725275 4.6875 11.375 C4.460625 11.91125 4.23375 12.4475 4 13 C3.34 12.67 2.68 12.34 2 12 C0.73238238 7.70418473 0 4.49055702 0 0 Z " fill="#2E2D2D" transform="translate(840,1881)"/>
<path d="M0 0 C1.98 0.66 3.96 1.32 6 2 C6 3.65 6 5.3 6 7 C3.69 6.01 1.38 5.02 -1 4 C-0.67 2.68 -0.34 1.36 0 0 Z " fill="#2B2A2A" transform="translate(564,1449)"/>
<path d="M0 0 C0.33 0.66 0.66 1.32 1 2 C0.0625 4.625 0.0625 4.625 -1 7 C-2.9375 6.6875 -2.9375 6.6875 -5 6 C-5.33 5.01 -5.66 4.02 -6 3 C-4.02 2.01 -2.04 1.02 0 0 Z " fill="#2F2D2E" transform="translate(1089,1203)"/>
<path d="M0 0 C0 0.66 0 1.32 0 2 C-2.77276624 3.84851083 -4.39992766 4.5205764 -7.5625 5.25 C-8.34753906 5.44078125 -9.13257813 5.6315625 -9.94140625 5.828125 C-10.96041016 5.91320313 -10.96041016 5.91320313 -12 6 C-12.66 5.34 -13.32 4.68 -14 4 C-12.0429132 3.32968281 -10.08428887 2.66385317 -8.125 2 C-7.03445313 1.62875 -5.94390625 1.2575 -4.8203125 0.875 C-2 0 -2 0 0 0 Z " fill="#383738" transform="translate(1411,1150)"/>
<path d="M0 0 C0 3.10551666 -0.5393715 4.35261084 -2 7 C-2.66 7 -3.32 7 -4 7 C-2.92598892 4.08482708 -2.22189824 2.22189824 0 0 Z M-6 8 C-5.34 8.66 -4.68 9.32 -4 10 C-5.98 11.32 -7.96 12.64 -10 14 C-8.84826645 11.53199953 -7.95216435 9.95216435 -6 8 Z " fill="#E2E2E2" transform="translate(1051,1125)"/>
<path d="M0 0 C0.33 0 0.66 0 1 0 C1.05429959 1.74965358 1.09292823 3.49979787 1.125 5.25 C1.14820313 6.22453125 1.17140625 7.1990625 1.1953125 8.203125 C0.99862781 11.0196498 0.44568916 12.60949036 -1 15 C-3 14 -3 14 -4 12 C-3.51917969 11.60167969 -3.03835938 11.20335937 -2.54296875 10.79296875 C-0.62608175 8.56549753 -0.52258357 7.21165331 -0.3125 4.3125 C-0.21388672 3.10013672 -0.21388672 3.10013672 -0.11328125 1.86328125 C-0.07589844 1.24839844 -0.03851562 0.63351562 0 0 Z " fill="#464546" transform="translate(613,1103)"/>
<path d="M0 0 C0.99 0.33 1.98 0.66 3 1 C0.36 3.64 -2.28 6.28 -5 9 C-5.66 8.34 -6.32 7.68 -7 7 C-4.69 4.69 -2.38 2.38 0 0 Z " fill="#282728" transform="translate(905,1006)"/>
<path d="M0 0 C0.66 0.33 1.32 0.66 2 1 C-0.5162178 3.60608273 -3.05134359 5.89381685 -6 8 C-6 4 -6 4 -4.6875 2.3125 C-3 1 -3 1 0 0 Z " fill="#2A2829" transform="translate(1018,907)"/>
<path d="M0 0 C0.33 0.66 0.66 1.32 1 2 C0.109375 4.34765625 0.109375 4.34765625 -1.25 7.0625 C-1.68828125 7.96097656 -2.1265625 8.85945312 -2.578125 9.78515625 C-4 12 -4 12 -7 13 C-5.35821735 8.22390502 -2.73453298 4.20617096 0 0 Z " fill="#DEDCDD" transform="translate(1104,774)"/>
<path d="M0 0 C0.4125 0.515625 0.825 1.03125 1.25 1.5625 C2.11625 2.2740625 2.11625 2.2740625 3 3 C5.16299211 2.77242269 5.16299211 2.77242269 7 2 C7 2.99 7 3.98 7 5 C5.35 5.33 3.7 5.66 2 6 C1.01 4.68 0.02 3.36 -1 2 C-0.67 1.34 -0.34 0.68 0 0 Z " fill="#272526" transform="translate(674,1480)"/>
<path d="M0 0 C2.86453858 3.41016497 4.34703566 6.90694544 6 11 C4.68 10.67 3.36 10.34 2 10 C2 8.35 2 6.7 2 5 C1.01 4.67 0.02 4.34 -1 4 C-0.67 2.68 -0.34 1.36 0 0 Z " fill="#2B2A2A" transform="translate(599,1336)"/>
<path d="M0 0 C0.66 0.99 1.32 1.98 2 3 C2.66 3.33 3.32 3.66 4 4 C3.67 4.66 3.34 5.32 3 6 C3.99 6.33 4.98 6.66 6 7 C3.36 7.33 0.72 7.66 -2 8 C-1.34 5.36 -0.68 2.72 0 0 Z " fill="#2F2E2E" transform="translate(1107,1302)"/>
<path d="M0 0 C0.33 0.66 0.66 1.32 1 2 C1.66 2 2.32 2 3 2 C1.60667426 5.36720387 0.0210714 6.9859524 -3 9 C-2.44271087 5.65626525 -1.64826111 2.96687001 0 0 Z " fill="#282727" transform="translate(785,1214)"/>
<path d="M0 0 C1.32 0.33 2.64 0.66 4 1 C1.525 5.455 1.525 5.455 -1 10 C-2.31223496 6.06329512 -1.24296256 3.87511856 0 0 Z " fill="#EDEDED" transform="translate(736,1190)"/>
<path d="M0 0 C0.66 0.33 1.32 0.66 2 1 C0.73058503 4.91402949 -0.51167694 6.79072873 -4 9 C-4.66 8.67 -5.32 8.34 -6 8 C-4.02 5.36 -2.04 2.72 0 0 Z " fill="#323031" transform="translate(817,1167)"/>
<path d="M0 0 C1.32 0.33 2.64 0.66 4 1 C3.04882866 2.1725131 2.08882991 3.33787015 1.125 4.5 C0.59132813 5.1496875 0.05765625 5.799375 -0.4921875 6.46875 C-0.98976563 6.9740625 -1.48734375 7.479375 -2 8 C-2.66 8 -3.32 8 -4 8 C-2.87548273 5.0280615 -1.77706209 2.66559313 0 0 Z " fill="#282728" transform="translate(955,804)"/>
<path d="M0 0 C1.98 0.495 1.98 0.495 4 1 C2.86695008 4.39914975 1.87481525 5.05254451 -1 7 C-0.67 4.69 -0.34 2.38 0 0 Z M-3 3 C-1 6.75 -1 6.75 -1 9 C-1.66 9 -2.32 9 -3 9 C-3 7.02 -3 5.04 -3 3 Z " fill="#312F30" transform="translate(289,739)"/>
<path d="M0 0 C0.66 0 1.32 0 2 0 C2.33 2.97 2.66 5.94 3 9 C2.01 9 1.02 9 0 9 C-0.84454356 5.62182575 -1.10844919 3.32534757 0 0 Z " fill="#2E2E2E" transform="translate(629,1418)"/>
<path d="M0 0 C1.98 0 3.96 0 6 0 C6 1.32 6 2.64 6 4 C3 6 3 6 0.8125 5.625 C0.214375 5.41875 -0.38375 5.2125 -1 5 C-0.01 5 0.98 5 2 5 C1.34 3.35 0.68 1.7 0 0 Z " fill="#292728" transform="translate(1182,1402)"/>
<path d="M0 0 C1.65 0.33 3.3 0.66 5 1 C5.33 1.99 5.66 2.98 6 4 C4.02 4.66 2.04 5.32 0 6 C0 5.01 0 4.02 0 3 C-0.66 2.67 -1.32 2.34 -2 2 C-1.34 2 -0.68 2 0 2 C0 1.34 0 0.68 0 0 Z " fill="#2B2A2B" transform="translate(948,1362)"/>
<path d="M0 0 C0 0.66 0 1.32 0 2 C-4.95 3.485 -4.95 3.485 -10 5 C-10.33 4.01 -10.66 3.02 -11 2 C-3.375 0 -3.375 0 0 0 Z " fill="#353435" transform="translate(1231,1313)"/>
<path d="M0 0 C0.66 0.66 1.32 1.32 2 2 C0.3125 4.0625 0.3125 4.0625 -2 6 C-4.75 5.75 -4.75 5.75 -7 5 C-2.25 1.125 -2.25 1.125 0 0 Z " fill="#2A2829" transform="translate(1188,1198)"/>
<path d="M0 0 C1.32 0.66 2.64 1.32 4 2 C-0.625 6 -0.625 6 -4 6 C-3.6875 4.125 -3.6875 4.125 -3 2 C-2.01 1.34 -1.02 0.68 0 0 Z " fill="#282727" transform="translate(875,1112)"/>
<path d="M0 0 C-0.99 0.495 -0.99 0.495 -2 1 C-2.33 1.66 -2.66 2.32 -3 3 C-6.37462715 2.45276317 -8.08235 1.9451 -11 0 C-6.98195309 -0.84098656 -3.98196457 -1.05404945 0 0 Z " fill="#2A2929" transform="translate(1011,1068)"/>
<path d="M0 0 C5.80205656 5.64524422 5.80205656 5.64524422 8 9 C8 9.66 8 10.32 8 11 C7.01 11 6.02 11 5 11 C4.16151196 9.54462432 3.32936066 8.08559627 2.5 6.625 C1.80390625 5.40683594 1.80390625 5.40683594 1.09375 4.1640625 C0 2 0 2 0 0 Z " fill="#D3D1D2" transform="translate(390,963)"/>
<path d="M0 0 C0.99 0.66 1.98 1.32 3 2 C0.82575883 4.50037734 -0.73045798 5.43628586 -4 6 C-4 5.01 -4 4.02 -4 3 C-3.34 3 -2.68 3 -2 3 C-2 2.34 -2 1.68 -2 1 C-1.34 0.67 -0.68 0.34 0 0 Z " fill="#2C2B2C" transform="translate(384,1379)"/>
<path d="M0 0 C0.928125 0.20625 1.85625 0.4125 2.8125 0.625 C1.8225 1.12 1.8225 1.12 0.8125 1.625 C0.8125 2.285 0.8125 2.945 0.8125 3.625 C-0.1775 3.955 -1.1675 4.285 -2.1875 4.625 C-4.375 3.1875 -4.375 3.1875 -6.1875 1.625 C-3.1875 -0.375 -3.1875 -0.375 0 0 Z " fill="#292728" transform="translate(214.1875,1249.375)"/>
<path d="M0 0 C0.763125 0.639375 1.52625 1.27875 2.3125 1.9375 C4.88246713 4.14232781 4.88246713 4.14232781 8 5 C7.67 5.99 7.34 6.98 7 8 C3.7 6.02 0.4 4.04 -3 2 C-2.01 1.34 -1.02 0.68 0 0 Z " fill="#2C2A2B" transform="translate(609,917)"/>
<path d="M0 0 C0.33 0.99 0.66 1.98 1 3 C0.34 3 -0.32 3 -1 3 C-0.67 2.01 -0.34 1.02 0 0 Z M-4 1 C-3.34 1 -2.68 1 -2 1 C-0.74458443 4.76624671 -1.62938042 6.37188934 -3 10 C-3.66 10 -4.32 10 -5 10 C-4.67 7.03 -4.34 4.06 -4 1 Z " fill="#2C2B2C" transform="translate(630,394)"/>
<path d="M0 0 C0.33 0.66 0.66 1.32 1 2 C3.32156597 2.40729228 5.6568787 2.74438677 8 3 C8 3.33 8 3.66 8 4 C6.41705218 4.05437607 4.83355744 4.09296271 3.25 4.125 C2.36828125 4.14820313 1.4865625 4.17140625 0.578125 4.1953125 C-2.1135858 3.99139502 -3.69904974 3.36551721 -6 2 C-4.02 2 -2.04 2 0 2 C0 1.34 0 0.68 0 0 Z " fill="#191819" transform="translate(1001,1523)"/>
<path d="M0 0 C0.625 1.875 0.625 1.875 1 4 C-1.46278801 6.46278801 -3.70676982 6.99771255 -7 8 C-6.02133662 6.85373678 -5.04205413 5.70800212 -4.0625 4.5625 C-3.51722656 3.92441406 -2.97195313 3.28632812 -2.41015625 2.62890625 C-1.63204305 1.73008851 -0.84063472 0.84063472 0 0 Z " fill="#2F2D2E" transform="translate(785,1474)"/>
<path d="M0 0 C0.66 0.66 1.32 1.32 2 2 C1.401875 2.268125 0.80375 2.53625 0.1875 2.8125 C-1.97224808 3.98493467 -3.35790256 5.19369282 -5 7 C-6.32 6.34 -7.64 5.68 -9 5 C-6.03 3.35 -3.06 1.7 0 0 Z " fill="#292829" transform="translate(895,1460)"/>
<path d="M0 0 C1.32 0.33 2.64 0.66 4 1 C2.515 3.475 2.515 3.475 1 6 C0.01 5.34 -0.98 4.68 -2 4 C-1.34 2.68 -0.68 1.36 0 0 Z " fill="#2C2A2B" transform="translate(1055,1114)"/>
<path d="M0 0 C0 0.66 0 1.32 0 2 C-0.928125 2.1546875 -0.928125 2.1546875 -1.875 2.3125 C-4.36526484 2.87525373 -4.36526484 2.87525373 -6 6 C-6.33 4.02 -6.66 2.04 -7 0 C-3.98968256 -0.93423645 -3.13349732 -1.04449911 0 0 Z " fill="#272526" transform="translate(447,1243)"/>
<path d="M0 0 C2.475 0.495 2.475 0.495 5 1 C4.34 2.32 3.68 3.64 3 5 C2.01 5 1.02 5 0 5 C0 3.35 0 1.7 0 0 Z " fill="#292829" transform="translate(878,762)"/>
<path d="M0 0 C1.13643966 3.40931897 0.86747764 4.00335456 -0.4375 7.1875 C-0.72496094 7.90292969 -1.01242187 8.61835938 -1.30859375 9.35546875 C-1.53675781 9.89816406 -1.76492188 10.44085938 -2 11 C-2.99 10.67 -3.98 10.34 -5 10 C-3.35 6.7 -1.7 3.4 0 0 Z " fill="#2D2B2C" transform="translate(650,335)"/>
<path d="M0 0 C0.99 0.33 1.98 0.66 3 1 C2.67 2.32 2.34 3.64 2 5 C0.02 5.33 -1.96 5.66 -4 6 C-2.68 4.02 -1.36 2.04 0 0 Z " fill="#272526" transform="translate(809,1104)"/>
<path d="M0 0 C0.99 0 1.98 0 3 0 C1.63016497 3.16115776 1.0109362 3.9927092 -2 6 C-2 2 -2 2 0 0 Z " fill="#302E2F" transform="translate(887,756)"/>
<path d="M0 0 C0.33 0 0.66 0 1 0 C1.39222105 1.41199578 1.76311059 2.82992764 2.125 4.25 C2.33382812 5.03890625 2.54265625 5.8278125 2.7578125 6.640625 C3.04314411 9.4203071 2.44977894 10.65887549 1 13 C0.1276588 10.00519083 -0.10829766 7.36424089 -0.0625 4.25 C-0.05347656 3.45078125 -0.04445313 2.6515625 -0.03515625 1.828125 C-0.02355469 1.22484375 -0.01195312 0.6215625 0 0 Z " fill="#1A1A1A" transform="translate(560,596)"/>
<path d="M0 0 C0.33 0.66 0.66 1.32 1 2 C-0.98 4.31 -2.96 6.62 -5 9 C-5.66 8.34 -6.32 7.68 -7 7 C-4.69 4.69 -2.38 2.38 0 0 Z " fill="#F4F4F4" transform="translate(834,577)"/>
<path d="M0 0 C1.32 1.65 2.64 3.3 4 5 C3.34 5.66 2.68 6.32 2 7 C0.68 5.68 -0.64 4.36 -2 3 C-1.34 2.01 -0.68 1.02 0 0 Z " fill="#272526" transform="translate(860,537)"/>
<path d="M0 0 C1.32 1.65 2.64 3.3 4 5 C2.68 6.32 1.36 7.64 0 9 C0 6.03 0 3.06 0 0 Z " fill="#EFEEEF" transform="translate(751,1502)"/>
<path d="M0 0 C1.8871875 0.0309375 1.8871875 0.0309375 3.8125 0.0625 C0.85538438 1.70534201 -1.80758426 2.7067194 -5.1875 3.0625 C-5.8475 2.4025 -6.5075 1.7425 -7.1875 1.0625 C-4.43671116 0.14557039 -2.82801087 -0.04636083 0 0 Z " fill="#2E2E2E" transform="translate(1121.1875,1327.9375)"/>
<path d="M0 0 C0.99 0.495 0.99 0.495 2 1 C2.4140625 3.06640625 2.4140625 3.06640625 2.625 5.5625 C2.69976562 6.38878906 2.77453125 7.21507812 2.8515625 8.06640625 C2.92503906 9.02353516 2.92503906 9.02353516 3 10 C2.01 9.67 1.02 9.34 0 9 C0 6.03 0 3.06 0 0 Z " fill="#272526" transform="translate(401,1309)"/>
<path d="M0 0 C0.33 0 0.66 0 1 0 C1 2.64 1 5.28 1 8 C-0.32 7.67 -1.64 7.34 -3 7 C-1.125 2.25 -1.125 2.25 0 0 Z " fill="#2D2C2D" transform="translate(1508,1071)"/>
<path d="M0 0 C3.3 0.66 6.6 1.32 10 2 C10 2.33 10 2.66 10 3 C4.06 3.495 4.06 3.495 -2 4 C-1.34 3.67 -0.68 3.34 0 3 C0 2.01 0 1.02 0 0 Z " fill="#161515" transform="translate(1173,1297)"/>
<path d="M0 0 C2.125 0.375 2.125 0.375 4 1 C3.01 2.485 3.01 2.485 2 4 C0.68 3.34 -0.64 2.68 -2 2 C-1.34 1.34 -0.68 0.68 0 0 Z M-2 3 C-1.67 3.66 -1.34 4.32 -1 5 C-1.66 4.67 -2.32 4.34 -3 4 C-2.67 3.67 -2.34 3.34 -2 3 Z " fill="#262526" transform="translate(1274,1297)"/>
<path d="M0 0 C1.32 0 2.64 0 4 0 C3.67 1.32 3.34 2.64 3 4 C1.68 4.33 0.36 4.66 -1 5 C-0.67 3.35 -0.34 1.7 0 0 Z " fill="#F7F7F7" transform="translate(1330,1260)"/>
<path d="M0 0 C1.98 1.65 3.96 3.3 6 5 C5.34 5.66 4.68 6.32 4 7 C2.35 5.02 0.7 3.04 -1 1 C-0.67 0.67 -0.34 0.34 0 0 Z " fill="#F7F7F7" transform="translate(640,1244)"/>
<path d="M0 0 C3.465 1.98 3.465 1.98 7 4 C7 4.99 7 5.98 7 7 C5.82780457 6.21654285 4.66236332 5.42297164 3.5 4.625 C2.8503125 4.18414063 2.200625 3.74328125 1.53125 3.2890625 C1.0259375 2.86367187 0.520625 2.43828125 0 2 C0 1.34 0 0.68 0 0 Z " fill="#2C2C2C" transform="translate(615,1184)"/>
<path d="M0 0 C1.98 0 3.96 0 6 0 C5.67 1.32 5.34 2.64 5 4 C3.35 3.67 1.7 3.34 0 3 C0 2.01 0 1.02 0 0 Z " fill="#292828" transform="translate(243,1154)"/>
<path d="M0 0 C0.99 0.33 1.98 0.66 3 1 C3 1.99 3 2.98 3 4 C1.35 4.66 -0.3 5.32 -2 6 C-2 3 -2 3 0 0 Z " fill="#2D2C2D" transform="translate(1504,1078)"/>
<path d="M0 0 C0.66 0 1.32 0 2 0 C5 3.46153846 5 3.46153846 5 6 C4.34 6 3.68 6 3 6 C2.67 6.66 2.34 7.32 2 8 C1.34 5.36 0.68 2.72 0 0 Z " fill="#2B2A2B" transform="translate(810,1072)"/>
<path d="M0 0 C3.16115776 1.36983503 3.9927092 1.9890638 6 5 C4.35 4.67 2.7 4.34 1 4 C0.67 2.68 0.34 1.36 0 0 Z " fill="#1B191A" transform="translate(556,975)"/>
</svg>
